<mxfile host="app.diagrams.net" modified="2021-06-30T01:44:30.264Z" agent="5.0 (X11; Linux x86_64) AppleWebKit/537.36 (KHTML, like Gecko) Chrome/91.0.4472.114 Safari/537.36" etag="XPYaajp2U1agNwWuXx7J" version="14.8.2" type="github" pages="3">
  <diagram id="yehXiFJGubpLJ5zXhZ1j" name="3-tier-architecture">
    <mxGraphModel dx="1108" dy="426" grid="1" gridSize="10" guides="1" tooltips="1" connect="1" arrows="1" fold="1" page="1" pageScale="1" pageWidth="850" pageHeight="1100" math="0" shadow="0">
      <root>
        <mxCell id="0" />
        <mxCell id="1" parent="0" />
        <mxCell id="3KtXVewnj80HNLxQoipP-1" value="" style="rounded=0;whiteSpace=wrap;html=1;strokeColor=#000000;fillColor=#FFFFFF;" parent="1" vertex="1">
          <mxGeometry x="100" y="180" width="290" height="220" as="geometry" />
        </mxCell>
        <mxCell id="3KtXVewnj80HNLxQoipP-2" value="Client" style="text;html=1;strokeColor=none;fillColor=none;align=center;verticalAlign=middle;whiteSpace=wrap;rounded=0;fontStyle=1" parent="1" vertex="1">
          <mxGeometry x="215" y="140" width="55" height="10" as="geometry" />
        </mxCell>
        <mxCell id="3KtXVewnj80HNLxQoipP-3" value="" style="rounded=0;whiteSpace=wrap;html=1;" parent="1" vertex="1">
          <mxGeometry x="212.5" y="170" width="65" height="20" as="geometry" />
        </mxCell>
        <mxCell id="3KtXVewnj80HNLxQoipP-4" value="&lt;b&gt;&lt;font style=&quot;font-size: 14px&quot;&gt;Port&lt;/font&gt;&lt;/b&gt;" style="text;html=1;strokeColor=none;fillColor=none;align=center;verticalAlign=middle;whiteSpace=wrap;rounded=0;" parent="1" vertex="1">
          <mxGeometry x="225" y="170" width="40" height="20" as="geometry" />
        </mxCell>
        <mxCell id="3KtXVewnj80HNLxQoipP-5" value="" style="rounded=1;whiteSpace=wrap;html=1;fillColor=#E6E6E6;" parent="1" vertex="1">
          <mxGeometry x="120" y="200" width="250" height="30" as="geometry" />
        </mxCell>
        <mxCell id="3KtXVewnj80HNLxQoipP-6" value="&lt;font style=&quot;font-size: 14px&quot;&gt;&lt;b&gt;Security Filter&lt;/b&gt;&lt;/font&gt;" style="text;html=1;strokeColor=none;fillColor=none;align=center;verticalAlign=middle;whiteSpace=wrap;rounded=0;" parent="1" vertex="1">
          <mxGeometry x="180" y="205" width="130" height="20" as="geometry" />
        </mxCell>
        <mxCell id="3KtXVewnj80HNLxQoipP-7" value="" style="rounded=0;whiteSpace=wrap;html=1;strokeColor=#000000;fillColor=#FFFFFF;" parent="1" vertex="1">
          <mxGeometry x="100" y="430" width="290" height="120" as="geometry" />
        </mxCell>
        <mxCell id="3KtXVewnj80HNLxQoipP-8" value="" style="shape=hexagon;perimeter=hexagonPerimeter2;whiteSpace=wrap;html=1;fixedSize=1;strokeColor=#000000;fillColor=#000066;" parent="1" vertex="1">
          <mxGeometry x="120" y="250" width="80" height="60" as="geometry" />
        </mxCell>
        <mxCell id="3KtXVewnj80HNLxQoipP-9" value="Service A" style="text;html=1;strokeColor=none;fillColor=none;align=center;verticalAlign=middle;whiteSpace=wrap;rounded=0;labelBackgroundColor=#000066;fontColor=#FFFFFF;" parent="1" vertex="1">
          <mxGeometry x="140" y="280" width="40" as="geometry" />
        </mxCell>
        <mxCell id="3KtXVewnj80HNLxQoipP-10" value="Service A" style="text;html=1;strokeColor=none;fillColor=none;align=center;verticalAlign=middle;whiteSpace=wrap;rounded=0;" parent="1" vertex="1">
          <mxGeometry x="310" y="270" width="40" as="geometry" />
        </mxCell>
        <mxCell id="3KtXVewnj80HNLxQoipP-11" value="" style="shape=hexagon;perimeter=hexagonPerimeter2;whiteSpace=wrap;html=1;fixedSize=1;strokeColor=#000000;fillColor=#000066;" parent="1" vertex="1">
          <mxGeometry x="290" y="250" width="80" height="60" as="geometry" />
        </mxCell>
        <mxCell id="3KtXVewnj80HNLxQoipP-12" value="" style="shape=hexagon;perimeter=hexagonPerimeter2;whiteSpace=wrap;html=1;fixedSize=1;strokeColor=#000000;fillColor=#000066;" parent="1" vertex="1">
          <mxGeometry x="205" y="250" width="80" height="60" as="geometry" />
        </mxCell>
        <mxCell id="3KtXVewnj80HNLxQoipP-13" value="" style="shape=hexagon;perimeter=hexagonPerimeter2;whiteSpace=wrap;html=1;fixedSize=1;strokeColor=#000000;fillColor=#000066;" parent="1" vertex="1">
          <mxGeometry x="160" y="320" width="80" height="60" as="geometry" />
        </mxCell>
        <mxCell id="3KtXVewnj80HNLxQoipP-14" value="" style="shape=hexagon;perimeter=hexagonPerimeter2;whiteSpace=wrap;html=1;fixedSize=1;strokeColor=#000000;fillColor=#000066;" parent="1" vertex="1">
          <mxGeometry x="250" y="320" width="80" height="60" as="geometry" />
        </mxCell>
        <mxCell id="3KtXVewnj80HNLxQoipP-15" value="" style="rounded=0;whiteSpace=wrap;html=1;" parent="1" vertex="1">
          <mxGeometry x="212.5" y="420" width="65" height="20" as="geometry" />
        </mxCell>
        <mxCell id="3KtXVewnj80HNLxQoipP-16" value="&lt;b&gt;&lt;font style=&quot;font-size: 14px&quot;&gt;Port&lt;/font&gt;&lt;/b&gt;" style="text;html=1;strokeColor=none;fillColor=none;align=center;verticalAlign=middle;whiteSpace=wrap;rounded=0;" parent="1" vertex="1">
          <mxGeometry x="225" y="420" width="40" height="20" as="geometry" />
        </mxCell>
        <mxCell id="3KtXVewnj80HNLxQoipP-17" value="" style="shape=datastore;whiteSpace=wrap;html=1;strokeColor=#000000;labelBackgroundColor=#FF8000;fillColor=#FF8000;" parent="1" vertex="1">
          <mxGeometry x="212.5" y="455" width="65" height="70" as="geometry" />
        </mxCell>
        <mxCell id="3KtXVewnj80HNLxQoipP-18" value="Service B" style="text;html=1;strokeColor=none;fillColor=none;align=center;verticalAlign=middle;whiteSpace=wrap;rounded=0;fontColor=#FFFFFF;" parent="1" vertex="1">
          <mxGeometry x="225" y="270" width="40" height="20" as="geometry" />
        </mxCell>
        <mxCell id="3KtXVewnj80HNLxQoipP-19" value="Service C" style="text;html=1;strokeColor=none;align=center;verticalAlign=middle;whiteSpace=wrap;rounded=0;fillColor=#000066;fontColor=#FFFFFF;" parent="1" vertex="1">
          <mxGeometry x="310" y="270" width="40" height="20" as="geometry" />
        </mxCell>
        <mxCell id="3KtXVewnj80HNLxQoipP-20" value="Service D" style="text;html=1;strokeColor=none;fillColor=none;align=center;verticalAlign=middle;whiteSpace=wrap;rounded=0;fontColor=#FFFFFF;" parent="1" vertex="1">
          <mxGeometry x="180" y="340" width="40" height="20" as="geometry" />
        </mxCell>
        <mxCell id="3KtXVewnj80HNLxQoipP-21" value="Service E" style="text;html=1;strokeColor=none;align=center;verticalAlign=middle;whiteSpace=wrap;rounded=0;fillColor=#000066;fontColor=#FFFFFF;" parent="1" vertex="1">
          <mxGeometry x="270" y="340" width="40" height="20" as="geometry" />
        </mxCell>
        <mxCell id="3KtXVewnj80HNLxQoipP-22" value="" style="outlineConnect=0;fontColor=#232F3E;gradientColor=none;fillColor=#232F3E;strokeColor=none;dashed=0;verticalLabelPosition=bottom;verticalAlign=top;align=center;html=1;fontSize=12;fontStyle=0;aspect=fixed;pointerEvents=1;shape=mxgraph.aws4.client;" parent="1" vertex="1">
          <mxGeometry x="214.21" y="70" width="61.57" height="60" as="geometry" />
        </mxCell>
        <mxCell id="3KtXVewnj80HNLxQoipP-23" value="Database" style="text;html=1;strokeColor=none;fillColor=none;align=center;verticalAlign=middle;whiteSpace=wrap;rounded=0;" parent="1" vertex="1">
          <mxGeometry x="225" y="490" width="40" height="20" as="geometry" />
        </mxCell>
        <mxCell id="3KtXVewnj80HNLxQoipP-24" value="" style="rounded=1;whiteSpace=wrap;html=1;labelBackgroundColor=#000066;fontColor=#FFFFFF;fillColor=none;dashed=1;strokeColor=#FF8000;strokeWidth=3;" parent="1" vertex="1">
          <mxGeometry x="110" y="240" width="410" height="150" as="geometry" />
        </mxCell>
        <mxCell id="3KtXVewnj80HNLxQoipP-25" value="" style="shape=image;html=1;verticalAlign=top;verticalLabelPosition=bottom;labelBackgroundColor=#ffffff;imageAspect=0;aspect=fixed;image=https://cdn4.iconfinder.com/data/icons/flat-mate-basic-1/30/Basic_lock_padlock_locked_protected_security-128.png;dashed=1;fontColor=#FFFFFF;strokeColor=#FF8000;strokeWidth=3;fillColor=none;" parent="1" vertex="1">
          <mxGeometry x="410" y="250" width="90" height="90" as="geometry" />
        </mxCell>
        <mxCell id="3KtXVewnj80HNLxQoipP-26" value="User Context" style="text;html=1;strokeColor=none;fillColor=none;align=center;verticalAlign=middle;whiteSpace=wrap;rounded=0;dashed=1;labelBackgroundColor=#FFFFFF;fontSize=16;" parent="1" vertex="1">
          <mxGeometry x="400" y="350" width="110" height="20" as="geometry" />
        </mxCell>
        <mxCell id="3KtXVewnj80HNLxQoipP-27" value="&lt;b&gt;Trust Domain&lt;/b&gt;" style="text;html=1;strokeColor=none;fillColor=none;align=center;verticalAlign=middle;whiteSpace=wrap;rounded=0;dashed=1;labelBackgroundColor=#FFFFFF;fontSize=16;" parent="1" vertex="1">
          <mxGeometry x="390" y="210" width="125" height="20" as="geometry" />
        </mxCell>
      </root>
    </mxGraphModel>
  </diagram>
  <diagram id="88ROGVAPgsZLtn2kjnbn" name="microservices-architecture">
    <mxGraphModel dx="1108" dy="426" grid="1" gridSize="10" guides="1" tooltips="1" connect="1" arrows="1" fold="1" page="1" pageScale="1" pageWidth="850" pageHeight="1100" math="0" shadow="0">
      <root>
        <mxCell id="ZsBWkxgLUlCkCqr66Bi--0" />
        <mxCell id="ZsBWkxgLUlCkCqr66Bi--1" parent="ZsBWkxgLUlCkCqr66Bi--0" />
        <mxCell id="ueifHyYTu_WedTb0_qDB-0" value="Client" style="text;html=1;strokeColor=none;fillColor=none;align=center;verticalAlign=middle;whiteSpace=wrap;rounded=0;fontStyle=1" vertex="1" parent="ZsBWkxgLUlCkCqr66Bi--1">
          <mxGeometry x="295" y="230" width="55" height="10" as="geometry" />
        </mxCell>
        <mxCell id="ueifHyYTu_WedTb0_qDB-1" value="" style="shape=hexagon;perimeter=hexagonPerimeter2;whiteSpace=wrap;html=1;fixedSize=1;strokeColor=#000000;fillColor=#000066;" vertex="1" parent="ZsBWkxgLUlCkCqr66Bi--1">
          <mxGeometry x="200" y="340" width="80" height="60" as="geometry" />
        </mxCell>
        <mxCell id="ueifHyYTu_WedTb0_qDB-2" value="Service A" style="text;html=1;strokeColor=none;fillColor=none;align=center;verticalAlign=middle;whiteSpace=wrap;rounded=0;labelBackgroundColor=#000066;fontColor=#FFFFFF;" vertex="1" parent="ZsBWkxgLUlCkCqr66Bi--1">
          <mxGeometry x="220" y="370" width="40" as="geometry" />
        </mxCell>
        <mxCell id="ueifHyYTu_WedTb0_qDB-3" value="Service A" style="text;html=1;strokeColor=none;fillColor=none;align=center;verticalAlign=middle;whiteSpace=wrap;rounded=0;" vertex="1" parent="ZsBWkxgLUlCkCqr66Bi--1">
          <mxGeometry x="390" y="360" width="40" as="geometry" />
        </mxCell>
        <mxCell id="ueifHyYTu_WedTb0_qDB-4" value="" style="shape=hexagon;perimeter=hexagonPerimeter2;whiteSpace=wrap;html=1;fixedSize=1;strokeColor=#000000;fillColor=#000066;" vertex="1" parent="ZsBWkxgLUlCkCqr66Bi--1">
          <mxGeometry x="370" y="340" width="80" height="60" as="geometry" />
        </mxCell>
        <mxCell id="ueifHyYTu_WedTb0_qDB-5" value="" style="shape=hexagon;perimeter=hexagonPerimeter2;whiteSpace=wrap;html=1;fixedSize=1;strokeColor=#000000;fillColor=#000066;" vertex="1" parent="ZsBWkxgLUlCkCqr66Bi--1">
          <mxGeometry x="285" y="340" width="80" height="60" as="geometry" />
        </mxCell>
        <mxCell id="ueifHyYTu_WedTb0_qDB-6" value="" style="shape=hexagon;perimeter=hexagonPerimeter2;whiteSpace=wrap;html=1;fixedSize=1;strokeColor=#000000;fillColor=#000066;" vertex="1" parent="ZsBWkxgLUlCkCqr66Bi--1">
          <mxGeometry x="240" y="410" width="80" height="60" as="geometry" />
        </mxCell>
        <mxCell id="ueifHyYTu_WedTb0_qDB-7" value="" style="shape=hexagon;perimeter=hexagonPerimeter2;whiteSpace=wrap;html=1;fixedSize=1;strokeColor=#000000;fillColor=#000066;" vertex="1" parent="ZsBWkxgLUlCkCqr66Bi--1">
          <mxGeometry x="330" y="410" width="80" height="60" as="geometry" />
        </mxCell>
        <mxCell id="ueifHyYTu_WedTb0_qDB-8" value="" style="shape=datastore;whiteSpace=wrap;html=1;strokeColor=#000000;fillColor=#FF8000;" vertex="1" parent="ZsBWkxgLUlCkCqr66Bi--1">
          <mxGeometry x="207.5" y="500" width="65" height="70" as="geometry" />
        </mxCell>
        <mxCell id="ueifHyYTu_WedTb0_qDB-9" value="Service B" style="text;html=1;strokeColor=none;fillColor=none;align=center;verticalAlign=middle;whiteSpace=wrap;rounded=0;fontColor=#FFFFFF;" vertex="1" parent="ZsBWkxgLUlCkCqr66Bi--1">
          <mxGeometry x="305" y="360" width="40" height="20" as="geometry" />
        </mxCell>
        <mxCell id="ueifHyYTu_WedTb0_qDB-10" value="Service C" style="text;html=1;strokeColor=none;align=center;verticalAlign=middle;whiteSpace=wrap;rounded=0;fillColor=#000066;fontColor=#FFFFFF;" vertex="1" parent="ZsBWkxgLUlCkCqr66Bi--1">
          <mxGeometry x="390" y="360" width="40" height="20" as="geometry" />
        </mxCell>
        <mxCell id="ueifHyYTu_WedTb0_qDB-11" value="Service D" style="text;html=1;strokeColor=none;fillColor=none;align=center;verticalAlign=middle;whiteSpace=wrap;rounded=0;fontColor=#FFFFFF;" vertex="1" parent="ZsBWkxgLUlCkCqr66Bi--1">
          <mxGeometry x="260" y="430" width="40" height="20" as="geometry" />
        </mxCell>
        <mxCell id="ueifHyYTu_WedTb0_qDB-12" value="Service E" style="text;html=1;strokeColor=none;align=center;verticalAlign=middle;whiteSpace=wrap;rounded=0;fillColor=#000066;fontColor=#FFFFFF;" vertex="1" parent="ZsBWkxgLUlCkCqr66Bi--1">
          <mxGeometry x="350" y="430" width="40" height="20" as="geometry" />
        </mxCell>
        <mxCell id="ueifHyYTu_WedTb0_qDB-13" value="" style="outlineConnect=0;fontColor=#232F3E;gradientColor=none;fillColor=#232F3E;strokeColor=none;dashed=0;verticalLabelPosition=bottom;verticalAlign=top;align=center;html=1;fontSize=12;fontStyle=0;aspect=fixed;pointerEvents=1;shape=mxgraph.aws4.client;" vertex="1" parent="ZsBWkxgLUlCkCqr66Bi--1">
          <mxGeometry x="293.43000000000006" y="210" width="61.57" height="60" as="geometry" />
        </mxCell>
        <mxCell id="ueifHyYTu_WedTb0_qDB-14" value="Database" style="text;html=1;strokeColor=none;fillColor=none;align=center;verticalAlign=middle;whiteSpace=wrap;rounded=0;" vertex="1" parent="ZsBWkxgLUlCkCqr66Bi--1">
          <mxGeometry x="220" y="540" width="40" height="20" as="geometry" />
        </mxCell>
        <mxCell id="ueifHyYTu_WedTb0_qDB-15" value="" style="shape=datastore;whiteSpace=wrap;html=1;strokeColor=#000000;fillColor=#FF8000;" vertex="1" parent="ZsBWkxgLUlCkCqr66Bi--1">
          <mxGeometry x="290" y="500" width="65" height="70" as="geometry" />
        </mxCell>
        <mxCell id="ueifHyYTu_WedTb0_qDB-16" value="Database" style="text;html=1;strokeColor=none;fillColor=none;align=center;verticalAlign=middle;whiteSpace=wrap;rounded=0;" vertex="1" parent="ZsBWkxgLUlCkCqr66Bi--1">
          <mxGeometry x="302.5" y="540" width="40" height="20" as="geometry" />
        </mxCell>
        <mxCell id="ueifHyYTu_WedTb0_qDB-17" value="" style="shape=datastore;whiteSpace=wrap;html=1;strokeColor=#000000;fillColor=#FF8000;" vertex="1" parent="ZsBWkxgLUlCkCqr66Bi--1">
          <mxGeometry x="377.5" y="500" width="65" height="70" as="geometry" />
        </mxCell>
        <mxCell id="ueifHyYTu_WedTb0_qDB-18" value="Database" style="text;html=1;strokeColor=none;fillColor=none;align=center;verticalAlign=middle;whiteSpace=wrap;rounded=0;" vertex="1" parent="ZsBWkxgLUlCkCqr66Bi--1">
          <mxGeometry x="390" y="540" width="40" height="20" as="geometry" />
        </mxCell>
        <mxCell id="ueifHyYTu_WedTb0_qDB-19" value="" style="rounded=0;whiteSpace=wrap;html=1;labelBackgroundColor=none;fontSize=16;fontColor=#000000;strokeWidth=1;fillColor=#FFFFFF;" vertex="1" parent="ZsBWkxgLUlCkCqr66Bi--1">
          <mxGeometry x="310" y="330" width="30" height="20" as="geometry" />
        </mxCell>
        <mxCell id="ueifHyYTu_WedTb0_qDB-20" value="" style="rounded=0;whiteSpace=wrap;html=1;labelBackgroundColor=none;fontSize=16;fontColor=#000000;strokeWidth=1;fillColor=#FFFFFF;" vertex="1" parent="ZsBWkxgLUlCkCqr66Bi--1">
          <mxGeometry x="225" y="330" width="30" height="20" as="geometry" />
        </mxCell>
        <mxCell id="ueifHyYTu_WedTb0_qDB-21" value="&amp;nbsp; &amp;nbsp;Port" style="text;html=1;strokeColor=none;fillColor=none;align=center;verticalAlign=middle;whiteSpace=wrap;rounded=0;labelBackgroundColor=none;fontSize=12;fontColor=#000000;" vertex="1" parent="ZsBWkxgLUlCkCqr66Bi--1">
          <mxGeometry x="215" y="330" width="40" height="20" as="geometry" />
        </mxCell>
        <mxCell id="ueifHyYTu_WedTb0_qDB-22" value="&amp;nbsp; &amp;nbsp;Port" style="text;html=1;strokeColor=none;fillColor=none;align=center;verticalAlign=middle;whiteSpace=wrap;rounded=0;labelBackgroundColor=none;fontSize=12;fontColor=#000000;" vertex="1" parent="ZsBWkxgLUlCkCqr66Bi--1">
          <mxGeometry x="300" y="330" width="40" height="20" as="geometry" />
        </mxCell>
        <mxCell id="ueifHyYTu_WedTb0_qDB-23" value="" style="rounded=0;whiteSpace=wrap;html=1;labelBackgroundColor=none;fontSize=16;fontColor=#000000;strokeWidth=1;fillColor=#FFFFFF;" vertex="1" parent="ZsBWkxgLUlCkCqr66Bi--1">
          <mxGeometry x="395" y="330" width="30" height="20" as="geometry" />
        </mxCell>
        <mxCell id="ueifHyYTu_WedTb0_qDB-24" value="" style="rounded=0;whiteSpace=wrap;html=1;labelBackgroundColor=none;fontSize=16;fontColor=#000000;strokeWidth=1;fillColor=#FFFFFF;" vertex="1" parent="ZsBWkxgLUlCkCqr66Bi--1">
          <mxGeometry x="264.21" y="400" width="30" height="20" as="geometry" />
        </mxCell>
        <mxCell id="ueifHyYTu_WedTb0_qDB-25" value="" style="rounded=0;whiteSpace=wrap;html=1;labelBackgroundColor=none;fontSize=16;fontColor=#000000;strokeWidth=1;fillColor=#FFFFFF;" vertex="1" parent="ZsBWkxgLUlCkCqr66Bi--1">
          <mxGeometry x="355.78" y="400" width="30" height="20" as="geometry" />
        </mxCell>
        <mxCell id="ueifHyYTu_WedTb0_qDB-26" value="&amp;nbsp; Port" style="text;html=1;strokeColor=none;fillColor=none;align=center;verticalAlign=middle;whiteSpace=wrap;rounded=0;labelBackgroundColor=none;fontSize=12;fontColor=#000000;" vertex="1" parent="ZsBWkxgLUlCkCqr66Bi--1">
          <mxGeometry x="385.78" y="330" width="40" height="20" as="geometry" />
        </mxCell>
        <mxCell id="ueifHyYTu_WedTb0_qDB-27" value="&amp;nbsp; Port" style="text;html=1;strokeColor=none;fillColor=none;align=center;verticalAlign=middle;whiteSpace=wrap;rounded=0;labelBackgroundColor=none;fontSize=12;fontColor=#000000;" vertex="1" parent="ZsBWkxgLUlCkCqr66Bi--1">
          <mxGeometry x="345.78" y="400" width="40" height="20" as="geometry" />
        </mxCell>
        <mxCell id="ueifHyYTu_WedTb0_qDB-28" value="&amp;nbsp; Port" style="text;html=1;strokeColor=none;fillColor=none;align=center;verticalAlign=middle;whiteSpace=wrap;rounded=0;labelBackgroundColor=none;fontSize=12;fontColor=#000000;" vertex="1" parent="ZsBWkxgLUlCkCqr66Bi--1">
          <mxGeometry x="255" y="400" width="40" height="20" as="geometry" />
        </mxCell>
      </root>
    </mxGraphModel>
  </diagram>
  <diagram id="OGwAEFOU-gI1OoorGsUf" name="tokens-no-shared-session">
    <mxGraphModel dx="1108" dy="1526" grid="1" gridSize="10" guides="1" tooltips="1" connect="1" arrows="1" fold="1" page="1" pageScale="1" pageWidth="850" pageHeight="1100" math="0" shadow="0">
      <root>
        <mxCell id="DfvMqDdx91Jrw5Rlsuxb-0" />
        <mxCell id="DfvMqDdx91Jrw5Rlsuxb-1" parent="DfvMqDdx91Jrw5Rlsuxb-0" />
        <mxCell id="DfvMqDdx91Jrw5Rlsuxb-2" value="" style="shape=image;imageAspect=0;aspect=fixed;verticalLabelPosition=bottom;verticalAlign=top;image=data:image/png,iVBORw0KGgoAAAANSUhEUgAAAG8AAABuCAYAAAApmU3FAAABhGlDQ1BJQ0MgcHJvZmlsZQAAKJF9kT1Iw1AUhU9TtSIVBzuIimSoThZERRy1CkWoEGqFVh1MXvojNGlIUlwcBdeCgz+LVQcXZ10dXAVB8AfEzc1J0UVKvC8ptIjxweV9nPfO4b77AKFWYprVNgZoum2mEnExk10RQ6/owBBANSAzy5iVpCR819c9Any/i/Es/3t/rm41ZzEgIBLPMMO0ideJpzZtg/M+cYQVZZX4nHjUpAaJH7muePzGueCywDMjZjo1RxwhFgstrLQwK5oa8SRxVNV0yhcyHquctzhrpQpr9MlfGM7py0tcpxpEAgtYhAQRCirYQAk2YrTrpFhI0Xncx9/v+iVyKeTaACPHPMrQILt+8D/4PVsrPzHuJYXjQPuL43wMA6FdoF51nO9jx6mfAMFn4Epv+ss1YPqT9GpTix4BPdvAxXVTU/aAyx2g78mQTdmVglRCPg+8n9E3ZYHeW6Br1Ztb4xynD0CaZpW8AQ4OgZECZa/5vLuzdW7/3mnM7wdVL3KbECyd3QAAAAZiS0dEAP8A/wD/oL2nkwAAAAlwSFlzAAALEwAACxMBAJqcGAAAAAd0SU1FB+UGHgAkKp+I3e0AAAAZdEVYdENvbW1lbnQAQ3JlYXRlZCB3aXRoIEdJTVBXgQ4XAAAgAElEQVR42sy9+Zdkx3Xn97kRb8k9a+1ael+BBhoEQIogRYoURzqaGZ+Z8fGx/0v/ZFu2dEYaSSOKGwguIIDe9+rat6zc8y0R4R/iZVZWdTe6Qcu2sk91d1Xl8l7cuNv3fu8NccY5XvFwxd+CnPr51NOFr384ee1T3NS/cvqtBJwDUeNn2OIXmf+Fy8EkkA0hG+LyIdZkOJuDMygsUtyWYAGLcxYRBRKAiiEoQRBDWPZfQQyigQBQ/uMsIAGueBcRmVy4nLp294oVOr5798b1+GMewRufcfLKpn7uXvljXrrwr5EthSwElEwJUEAm31jIe5APcMMew16bfDQgT7okgzbp4JBscEiejnB5CiZFXI6ILVbf4ZzBWocWhdYxQVgjjOpEpTpxZQZdm0WVm0SVOrrSgFIVohKoCFAIGnVqGVzxl5vaeX6/yEsK4JVgvJby/5XwZLKXxsIQZGpn/T97SKFhzjkvvbGwXAZmBKMj6O/Sa23QPdgg6bfpdzqkwz5ZOsDkI1w6wqQjr3nGgM1RhbaJOHDO60KhykoFKBWhdIwOInQQI3EZXapSrjWpNmaoNJrUZucJmotQX4R4BpEaQuTNgVNYp3AoLw/3Kg3k5ZVy/5p6B/Imszm+JJkIcvrnbyP612udqOLGBcCAHcKoQ9LZp3e4Q3/vCb29B6SddYatDcQMEQfWWBCLUoIiQJye2lzjLy8wmbp2K8VvitV21nitxOHEITpA6RAVRZQadaqzZ6nPX6a+dJ1g5jLUlqBcA2IgArTXKzt1vzJeHXe8Tu5tbdG/kvBeu+jOTZk2d2o3nTIZL2/F4pcWmZibHPIO9A/o7T/naPsJ7b1NOoc7JJ1dTG8PnfcIGVEKFaHSqMLGWhxCgKABVYjJFWvmJoJUk6WUQtMtorw/dBjAYp0hN5AbS5rn5M6i4wZRZZ7SzCqVhQvMLl9ibuU8MrMMlUVQTS9Epyf284TldG5qS/3rP76x8CaiETclGfEXPxbk8fYnNw4RQRW/FgCbI8pB3sMd7dDZvs/Bi9scbd8jba+Rpz1MllBSISUdIdaicATKIc4gOJwU8YR48+Wc4FDgDG4c4IhCiSCuEKsD60ArQQSsywrhOZxzOKcRFfrnWYMTIc8tiTHYMCCs1GkurjK3co2FCx+jFq55bdTNiSaeMEqO/1cf/wrCE3Dq5MUKE6Mx1j6ljp03tHGHG7Q2HrL3/C6H6w/o768h2SHVYEQcaZRyiFUEUppsCiUOTYZgsGKxzuLw/kckBBVibU5usiICkonmifP/w3mLoZRDyHFkk4DCuQhHNNEiJQ5rc4zLyZxhmGZkVhNW56kvXmHu3LssXXyPcOUq1JdBGuBCcMFLspN/e8LjWHCnXWGhedb6XyhlgRH0Nmmv32bz4W84XLtD1tkktI5YCYFYAvFmTLAggrNeuwSFkCOM0CrDkmJcTm40xgbkRvsvm5PbFIvDYhEUgQpwxqFEE2hNHAYIOWFoCANT+EWLsxUcZSBEJESwKHKss+QOEI2zitwJ/TRBl8pU51dZvvQOi9c+gdX3IVoAquA0Dj3Zyf+GhPcKNZNXhNEOlHYgObg2vbWv2Hj4W3af/J7+7iMqDKkFOcpptNNorQvzloMYRHm/hmiMFYwxdLpHJOmI3GWgNagycWmGSm2OcmWGuFwiiLTXPC0ICgw460iGI7Iso9/t0OsckiRHYIcolxNpqFVmqFaahDrwe89liE0KBx/hnEIRoHVAkvVJbcIgdxBXaa7eZPXad5i78i1YvOpNqY0Kcxr+WzKbJxPPaU2bztu8BPu41jPWH3zK5oNf0tt5SGSHlMiJlaCLF0gRVnh/lmAZYTFkeU5/mNMfWcLSHNXZc5TqZ6g0z1CfXaJcnyeqzBBEZXRYQgeBz7FFsEX4J05w1uGMwVlLnqQkowHDwRHdzj6Doz1GnX0GR9sMuzso06Ua59RKilhbtAqxLgJilA0RNE58sJM5S2otiXOElSpz597l7PWPKF36NjSvAHWwJQ8OuH8zwnvZKY8TVh/6W8iO6K/f5vm9n7P54FdIb426HlEOAsS4IsRX/jWMzaxhkPboDtukxhGVaywsX2Rh6TLVuQuUZy8RVFZQ1QUoz0NU9WgJ4nMPpYuNNBU1yVQWPb7dPIdshEsHmGGbvNdi2H5Ov/WU/uFzWjsPOdp9juR9KqUSlVKNOCyhXIDYKd+gHNZZjBuR5QNGElOZXWHlxvdZvvljWHkf1BmvgZZj9ObfhPBOpQaTnK37nN0Hn7J+/5e0N28Tmy4llxNgCZSeJHg+uM4QSRmmOf1RggubVGbOUp2/wNzqDRqL5ygtrELchNIsBFXQJZCwwBmK93PWL46ok5HCdPTnivVzgDPedzsDeQppG5I2dnBI92CT1s5zDree0T98weBojcD1aZQ1pUDAapQKUSrAWcGOtVr8F+UZFi68y+X3fwQXvgvlc+BK4KL//4XnOOnyJgAJI/p7z9m+9zN27/4zWesxJduiokC7CKxCBUGhpY7cZIySNqOkiy43mVk6z9zKLeZWPiBcuAazl6E044WlIyDA2ELwU5CaZZLeTWIpTl2jTAGS1sdDJ2E5xhm3hXQI/UOGrW16ew9obfye9vYdDnfuEzKkVqoTBTGBhGgJwCjEBjhJyW2fkc2QOKK+dJML7/8F5es/hMYlsJVi96gxaPZHR6PfQHjT0KtHKUTJZFEEA3mPwcaXrN39F/Yef47qbhLaAaXAEiA440N3HQjG5aR5zjDNIapTXzjL/PmbzJ2/STx/EeqrXst0vfAX3iw6wNhjLZfTqM0rhOem4LjpgGr6Z9MIyURFbQrZyGtjZ5vu/jPWn3zB0c4jBgfPiGyPSiSUAiEgQkyAxRZm1PjEX8fEM8usvvMJC7f+Hcxf8ykFJZwrgAXHCfzqbXGrtxTedGowCStwxe5XANkhrbU7rH/5X2k9/hlh0qYmBi0K0SHOCdY6lAJjR/T6bXRcpT63zOy5D1m4+G2ClZvQuAhRDSSemL+Jq5KXb0+O4f9jCOqb2hJ5RU4mJzB4r6qjLsnRJp2d++w//QVHG79j1N4kliHVqEpEhHUaR1BUNiy5SxjZAa48z8UP/oKlD/4Clm8Bi4DGFJUGKXaUiHtjpWZ8cW+veVIYJqdwIpMgU5FBekTr2W9Y+/IfOXz+BVGyR00rIlcAt0pwWBw5SZYwzECVmixe/JCVK9+meu5dmDkP8YzXNHSBF8orF9mdgs1fa3zcHwG6vu7pgodnbAqjI7LWE3af/4HNx5/T3n5IkB7SDBLCIPKlJ6sQq3EYcjtkaByqOs+5dz9h9aO/hJVbILPgatjC80tRwpJ/feGZSVI+Fp4CXLrP9rM/sPH5/0n/+U8J84R6qAlciLKhN3NicZLRHxzgtKa2cIXlK99h/uqfI2c+hOosqIq3VON0Y4xLTiW4rkB13KnSk0zhq07+KMXj6za8K0y0dYWVcYDLsP19Opt32XzwGUfPfo50vkILlOMY5cpg4wKay3Bk9NMeUplh5d0/4+yHfwnLH0OwikVjRFAOr7FvKbzgjfE/03dWYPTO+XpZ3qH17DM2//APHD3/gnIypBzFKOeRBeNynFgyl9JPcvJgnuWL73HxvR9QOnsLZq9CdMY7b+dwYxhs2ie9tIqvuh/3jWuJp+/x66s1x8WdcfkHFaIaZ5iJI6qNeXbnZtm4P0N35xF52qUaQiA5IoKzvvpQimr0+n1e3PstDsU5YljWqGAGqB6D2O7tfF7w2oLrCeD51B2KgB1y9OIOzz7/b/TWfkE1H1IPNQoFLvRmUlJSO2KY9yCe4+rNP+fcuz+C1VtQWgZdBbSvvhVVCuXcFGwqr7Bxr6rsu5OCc28M014W3ptE5/A56VRdX9BINE+43ORsdRbdOMvWnX+gs/YrekmHRghCiHERSsVoFLVYMRzus/Pgl+igzEoYw5mbKKkUpvntbXpwumI+0bFTu9w58SZK+TJOsnWXtT/8PQfPv6Rm+lSCEOU0gsY6g8NgyemnDqme5+Z3/pK5mz+B2WsQzoFUCvzveD+Ik2klf21RX14TtryVQ5NXP0/eoKXijsHbcQH22FEF0Fhm+XqJSjlmLaqwef8zbHJALRJC7bFaEYV2IeXQ0u+2Wb//G6JSmfkwhvkYKPtA7S2Lti/D36cxy3FI4I7BgWFrncef/wMHj39GOW9T0aogCgRFOSbH2ITMppQay7zzyX+hfvPHHi7SM2D0CaRh7HNkyjS6QlIv6Z1zp8yknLxZeZt7f4Xg3Jv5BMe8h6kgZvw6FUH5DI0L3+VStEAQzbN155/oJzs04gSFxRHjEDQB1RAGnS027/yUsFSlEVegdhGk9NZOOziNKsuJguqpCxUHyR4vbv+c9bufUk1aVAJBOe8HcRYnhtym9HMhapzj5if/A9X3/gLqF8BUQIXHcnsV2i6v48+4lwu8crKSIVPo12vVqXi+nMr33hyQystvMPUTa71cg7hJ7exNrkWaOA559sU/cth/SrOk0M6nTk4EpUJiMnr7Gzy//Sk3Kk3i6zGUx0B2+AoXcVp44sB9jeGYbEsDDNm9/0vWPv97ytkRdQ3aCYqw8AsZmUlIzIho5go3v/8/Un33z6B2yZdJdHDs8N8mnhjXeKd9mgjWWnAOrRVFDIyegi/HPklPMdHclPLoqc3j7EkS0YlbfpWJfc3FKzkmVImOCRYuc+GjCIKAR5/97xwON2nGOSUNomKMEbSCSigM956z/sU/cSWuI1frvkJvNQT6+GZe4T+CCSbpvoaaJ94U5jv3ufPp36D6a1QkIUQKOpwABuNS+pkhbi7z3if/nsp7P4bqea9xOuKbAHEyBUU6OfZyNvf1Ny0OxBYCUhPVU6IKWtCUjxrfnJwscwsUKNFUNDm9Fm9H1TlBQhqnKiqsoReucPlbFmeGfPGz/40gbxMFDnEWpRTiQEuAtRntrcdsPfwdq/OrsHATVOlETPAq4QRvsfm91g02uPvZf6W/e5u5oEdQgMJS8CqtGIZ5n7B5gRuf/AcqN38MlXPgqp4n6b6mHvh11MDTibnWhDK2BHkhuIK85FJvv7IMTFYAz+LrfqIgCH3VQReUBQlAPLVPCI7TffEv/WNy+5PuOITZS1z+8D+Q5Yb7v/hfifWIamjRGM8TdZo4ENI8Y/f5V9RnGtQ/qkDtRkGvC169h6TQPHnNNpuEFHmfrTu/4skX/8JCmFKR1Odyzgco1uX0k4SovsD5b/0ZjXd/5H2c1HE2mlD8jnHEAm5zb8ntnCoOaPFVCGhD2sZ1O4z6XdLBEdmwTTYakg76GJNhbY4gBFqjwwgdl1BhTKnWoNqYJZiZg7AEYROoIcQIccE0++NAmSnukS9GSxmZv8aNj/+KrLvDsz/8PVQMVW3RShca6AhE6LV22Lj/G95duAjvrID4kpkTdSI+GO+PQKYjh8KGTsJg5XzkuPuUh7//79SkR1lAmwAlCuc85JXlCVKaY+nKxyy8+yOYuV6Ar9E08+0t4e+xqTsW9nFsOoSkhTlap3/wkP7+I3qtXfrtXfrtPZLBETZPwWYo0WgdIc6R56n//EAjQUS1MUe52qQxt0Bzbpna/FWCuctQW4V4ESijVAgocvsKRvfXqNwxh3MaBY+Q2ctc/c5/otcb0t34HWEwJHQObbOC1BsQK8Ootcvmo69YXbwO82UvQBsgSr8UtQTTbsC9BMxm0N/n6d1f0964x3I1IzAWZQOU9sS53Fkya5lZvsLqu38GizdAz+Ns8JpYbQrkfoWvFTk2XTKx6wkM9zjafkJ39ykH67c52vgSN9hA8g4hQ0JliV3qBQXEUZlARz4CJmeYDnBOCFQJaW/R2c1oPdNIWKU8c5X51Q+YPX+L2tINgtllKC0AFQLlQfWXoppXxgdjYNlBwSWd6IGuUz77La5+u8udwQGd1n3qAZSVxVlP4goEbDaitfGEmcdfUKnNQbzisVInoNQJ7xOchGPkBG0PM6S//YC1e7+hEUHsHMr5JbXOYZxhkOQ0F89x4d3vweqHEMwWuiIvEb9Poz/yRqeSQLJLsv+Y7Uefsrd2m+7+OpL2CFxK4HKU0gRS8hRA49BhCRXWEUmxdgAYglJMKYL+ICHLFKVQqIY5ORZjIW9ts33UZW/tNs2lc5y58A6z52/A7BUoXUSk5v2TfbN/9pbrmLnmplGIuMHi5VtcOPgBD359yMjsU1IJSsU4a4p0yzE42mX7yedcWToPF+eLkpjC2OMymMMVwntdkNLd4/mDzxi11liKHYG1ntsoCuNSkiwhKDU4d+VblC59CypngRI45U3epFJjTzHNxCfa7lTaNk17NymjwyfsPfs1u49/QXf9t+hkjzI5sdaEuoIzCtERSWLJXURzbpW55Wu4YI6jvUe09+7gnDC3dImFM+dptRO2NjcZ9XYohznlWPmgxxry9JDR4TYHR3c5Wv8dC+evs3T1h9Qu/QBmrgANn6NaeSlKkBPaV9j700x3QPBIzIWb3+dw5wXtpz8nzTvEYYhoBRa0VSgzorfzmKOnXzFz5hqU4xOBi+M10aaMKwh5j4Ote2w9+iUV1SYYmzTla3nGGhJrWTr/DvXr34eZsyDROLs6ZSvViXrgmGmtprJlN/FxCQy26WzcY/3BLzhY+4ysswWjAaWwRhyEBEp8giaGUW6xYZ3a0i1WbvyQxtnLZP2Ug0GL/mYXcUK5uUD5/R9QtrPw6BkvHv6WVus51bxLWeVoAqIwxtgqaZozbPXIRl/ROWixcrDB8o3v+xpcuOSrHzZ+NUDnvga5mQRtEXrhMuff/xH9oy26hyOcFcrKk5MRH/fmox5764+YufwYLjbBia/YT7m54JVWy2Vk3T22nv6B5OgBK1VBm9CH08qHFGmeUWnOsHLtQ0+yCWZwEk5Ywy/dxjSsNG51kuOw1utkjulss/vo52ze+Qd6239ADZ8QZobZ2evMzpxlOEgZDvo422eUDCGqcub8dZbe+/eUr/0lVCpkG+sMVJnEDlAEmKAMjfMwc4vVxodQXeLZ7Z8y2PscbTpEKqAUlZmvLVKTEt3WMwadpwySfTZ7TxgdPubCt/4T6tKfQnwRVIzYY8MyxoK/tjdjDDo4jYRzzF38iIXNh6x3dlF5i1KYTnoutDiczei3tmg/v01z6QKE8aTq516b5wmQ9enuPWHvxUNKoghET9EHPAE1o8LqxY+oXrhVOPdo0tLx1gWZAi+Vwr+Zg3ts3vsZ63f/hdHuPcj7iJqnOr/C2Rvfp1qdYfPpXfJ+nzxNMU6xePYW52/9BfrK96B+FhiRe9tQkHSLOoBzPu+an2H15vcxKF58MaK/b8ltn1IpoT4/w5n5q7RaSzx7Msuwt03W6TB4fJf+MOOdtEtw9UdQvghSRVH+Zp0/Ey1UBPV5zl35mMONp6Q7X5K7AXpsfZyv7aWjDttr92he/QBWl4v7UK+p542vY3jE4fp9BgebnIljlDG+F0DAYUkyQ2X2IitXPoYZn8/5t/pmldBxQRdS+vvP2frqn9i98zdkB0+o00HHc1Tm3+XKrR8TnvuQzos12sM7vhEkz1hePcvl936IuvwjH+ajwGlyHBaDIvds0HHG7axPX2YvsvJOhE36bKRDks49+sM9otGAudkzlM+9jzTe5cX9X5G37kC6y9Hzn/Mw2+NqmhBd/wnULnsiruhTPJS3wEodoEo0Vt9h5cp3We+skww3KYWqWI8CucoHdPfX6K0/pLbyAShbWC0pWmzwRdBJ6cxmDFpb7K/fJjR9olBPLsw5ME7IXcj5C++hVt6DaHZSxnij6cBNUgFPrfR5ZH5wn+07/8z6nX/CHDwmEgXxWeYvfMSFW/8OLr0HnS5rz+/S7axj0kPKzXlWbn4fdfkDqC16hy4gznfFqul6gDMUtOlJHhTMLXP2nT9h1G+xc79F52iLZPsJM8vLNFf/ipWPvke53uDJ7SqtzS+I7Bbba8/I7d/xrhLCa0BNI1Q9RV7exJ2ZxtyK0L86w5nL73Pw4neMXrxAWUtJ5SjRgEYjZMmQ7eePuHbzAOpVTx8s4ED10icmfQ63ntLbfchM2QPPWgKU+CgzN0K5Ns/ypQ+gfg6khnMa59Sbu5xfQvxT8u4GG/d+yvbtv8Ed3aMqbUqlOqvXfsiF7/5PcOMnEMzx4v5dtjbuYfN9rOuwfOVdKtf/BBorQIwTPYkBtYAWNbHNotxxzWmSRyqCxSssv/On1BavIkGdXneHF09+CnuPYXaBmQ9/wuXv/s/MXf4xOQvEKuRo43Oe/eGvMc9/Dck2yOgbUGLscR+AAySmduYCC+dvQrzEMPMYse/M0AQoQmfp7G3C9jMfzImZ3JdiXGBVgMsZdg7Y33pG3j8kkhwlvv3JGI/FJUazeO4GsnQJoiY4jXVvDx0563C2SF1HLXYe/o61rz4lO1hDjELFZ1m58UNWv/Of4dK3IWyS7+2x/vQr8v4OadJn7swFVq99DHPXIWhiJcTKGMQ92Wp2XGl3J3MyB4RVmivXOHPpQ1TjMpkNGBxts/n8LnQ2IK4we+Njrn/3PzJz6Yd03DISzLH57AlPvvwFvPg9pPuIJAj5N3AXxzVJKdWYX71C0DjLyGiMMxjrDb/WoJUlH3XYXbsLacsDJ0WapU5QsvIhvaNtOgebxJKjXAbiq+LOWdLMInGDlcvveVOlPGtZ3nLriXhbLkrA5Rw9v8fmnV9h21tUbEopmmPl6o859/F/gfPf9zTx1LL+4gmDgzVi10ec4vyVDwjO3oJwBahNBOcKY+IKQqub/DlJnZZpeVbmmTv3PuHCe1jVIO132H/xALN5G2wLohlql7/D5e/9L9Qv/pjULaIps//8Lrv3fgr7j8B1QbKvtZuT6ohMC09ARTTPXKC5ch0XVEmzzPdBKIMTg3Up1vTZfnEX+nu+aWdyp9NqkffpHawx6uxRjQOwBmcNxvqGqWGaUp9fRi+eg8C3QqGUz6tfWY4es71cccFFwi6OvLXJ2t3P6G/dR0YdtASsXHiH8x/9BFaug1R98tDdZ3/zMaRtTDpgfnGVuUs3obHgNw+gMGhscTMZqlhIV1DhJ6CDpAWoXbiNomWvcmaFlcvvU2sukyaOzuEeh5sPoLMNjCAoM3P1Fh/+4D/SWL6B1Q1Ggy4bjz+n/exz6L8ABgXDzhaCcrgxXXIch096BGXKjWion2H+wi1KsyuMcrwLEMHZ3LeZuZRhewu7+RCM/xzffjaV9NnBAd39x6S9PSJ9HPkoJehA009GzK+eh7klP/oC5YuZlqkLdhOK3uRL3ESMiIBp8+L+b9h//gVhukcgOWdWL3Hxo+/B+RugQ2/f6dDbe0x37ymRyjB5xtkL12Fu1Zd5GAEDFAOEUfGaIYEkaGURXcIRev8nOZACfZCeB7npAz2oRqycu8j80nlUMEeeZnR2nnvTScdXMLSidvEKVz/8HlJbJCyX6bU3WX/4GWx9AeYIZNwVSNHnbqfQpWOaojiFOIUz4itbukr1zBXKs+dIXYxF46xFi68caJuQdHc52nkKblDcpxmnCn62Sbe1Q7+1QayNLyi4ce835MZQrs+weP4alGdARZ7tOxUHvEwOOllmcr5TkuHWU3aefoFKDokZEZUiZudmQRs4WgN2PZdj2KG19nui7BBlc+IgpFmrwOAItu6CvMBO1+VEI2ZAdriGG7bQNkJrRdLrwtYTSBxIrShyqon9FJfCaJdarBlW58mMI+m26D2/TU2VIWrgrEJCR7MeML8ww2BnF2s03d1nbD/6DcszF2DxDKI8V/MEWD09WGAMKjkpuoUBiYjqCzQXz9Nfm2OUDwi1j5KVaAIRQjEc7W0yN+hA8wyoCfVPIM/pHR0w7OwRqTEOOZ79oEhyS3VhBb1wHlR10rp7GsqbLpEc34B/L600mDYbj/7AcP8ZZcmJA424jN2t5+y39xmJwqCwosEq0kFClA6IAkW13mDj8Zeo9QekOiBXAblxvmlEaUQplDGYJMENO8xV5rDGcbixwaj3t9goxCqFtWNusjflAQ4xGXmvSygapRWjbpdnX/4K/fg2Oo4ZZSlKcsrKIP1DShgIKvRHAzqbj1jYfUYwew2CORRBERDKFN10qnI6RdkYU+njuMT8mXMc1Jfo7jyiWvNpj7N+4kWkAw73DrjSaUHTgJtoniVPBgw6e7jRIbE2x1NXnPhiYFBicfUS1BYKdrO3y+qtUHYm1IRkb5Od53eR0T5iR+TGYKyh3dtnmD7BMPRtdiKUojrVyiyxinEWjBE2116QuRFWMix+OI4rZqyIUignhCqiXp0lDio4B9koY+vwATlDsnw44XY68eM9fME2oBw1iYM6ohRiHcOjHQZbD8lsSm4zECHSAbGOqURVtIsIJGV0tM3++n2Wl96FhQpIjBQTIlwRCziZbkZ1x806CEoEgohKY56wvky+u4aVlECpAjLTaCMMh0Ns9wiVj0CVxsLLGQ1a9I42cOkuUSlCrHhzLQpnFWkmLK1e8k0g7njEkztNDZmuwxdV2OM2qpSNx3dJ2ttEto9gsaqEVTFOBYRhQjiZXmQIlUOM9ekFAU7FSKnq8yAxOBzWWqwtJk4ojS5iTeuEvMhhnCoRlZb8LCNXTH6YUCykmFahMRKQqJBY5yiGaBUSl2YJ0RgJC41VONGkSqGdRegwHHQ43HrC8sEjmFmCoF5gvKfLYm4KTXN+nMgkTFZEtTlKs2fJdYXUpGilJlR+JYBJONrZYO5SD0pVfPO1M6SjDsP+PuQtlGt6SkCR+FonhKUaweyZ4ygT9Uaq8UtYZ3uPw+1n6LyDSztE9TnOLF0gqC6RqQZiPaFISc5w0Ka7/4y084I0T6k0ZlheuYKUF8iLKHM8gsNav3u0DtAuY9Rt0d5/StLfACc0Zpc5t3ABiWbIXDhx0m6Kyi6iMXlKt3PEoPWEbHBEGEYszp+lMXcOXZ4nsyHGji1OTq+9TWvnK7LkkFQpi7AAACAASURBVEF7i97OPWrLN6C5wqQP/fSQhZNcuAIVEnAaHTeIZ1bR5SZ5duRZ5JOBBA7lDL3WLnNpH0qm4LCYnFG/RzpM0C5EE0wY08bmpAaqc3NQbU5lF/LGlFydqGkZOntr9FvriOmTZUNmVy+z+q0fw+xFUDMF2BmCHTLaeU7384RR+zlJOmBubo4zH37iibtq5jjOn8TcyhOLbJ/h1hPan7fpt75ARLG6+A6LH/4JNK6BqYIKTnXPiicmpT0ON57w/MsWR4e/p6obNBbmWPzgE0/tcDU/qkM0uBHl9Xu0hkck3W3ssEtn/zG17hY03/HPkegEF85NcU/HeOiJR1ih2liiXGuS7Y88YcqpIqjwiOage+QH5jlbaF6eMhz0sJkh1iXEqqJX3GFcRmodZ2bmoFQrWFcnuzq/jp4mU1Xx/a0nmOE+Ou8SRYr5c1fh7PsFzDbrJwmJAjLsUOhLhcQZEpcRNZuwfB7q10AvFqZbvwLCSbEJpHGVkT3yBJ9KAAtLMHsD7PyEQPAyapxQshHy5GeM8jYqE1JnoD4PC9eAuUJ4Pk4oS4nS2pcc7tzBJn1GnXVMexO90p108Y7JQ5O2XHEn1u6kpykRVxeIK3WGZuRfK3bSri3OkQ66MOjCjPG+kjwl73cgzwh0fPzmzlPscpNRbtQgjosFC45JDjINQwmToVHCSebOqEd3bw2VtsnTLo3ZJrX5ZSjN+76FE6bYMEy6jEYdrE2wGMqNhh+tKMV4DNEnP0OOyy1GdGGOMpTLUeNiGvrlKliRatkxBzmuEpRnIJhjlMJg0INkyCRnmrCyFWFtlsbieaQ8T2oMyeCApLsPab+gJrqXyLs+x5tKsU5QoAPiap2oUiO1Dqv8RItxoVopi0l70DsEm47bXjLsqIfNM5QOi5YrX/4RPDwWVcoQhsW0t2P80JsCO911MMlspjk7ttci7ewSmi427zO3NA/1om2ZMnmBfVgAkzMcdcnyPkplqECoNmcgjEHCyfxLcwqrH1+DLeqPymUolyETWnQwgYcNkIv/zKxI30HhghK6NIOK58lMSJqOvJny80H8a8crHtcozy6jKvMYB9mo5YU36hZVjFNDGwvBjaHkEy3YAihNUK4SVWsYUZii1XJsapU4TDbADttgxsJzOUnSxWRDAmUQsVND4SKCoEpcahS7Xsb4wTdoX7QM+h1Gg04BuSlmZ1eg3PQ+znF8QwDZkHzYhdwPR42CEnFldgKHvUrhjh8GKbaBE+UbF90UZV/chFZYxI4EU71uURhTKlUJwirOKWyeFZqXgbKoMUu76NGr1RcoVRZRukyWZfR6hVkrPusbdeE6QauIOKojqo414fSqAJYs65OlHSA/Fl6W9sjyflF9NlNl7pAwrBHHTS88xze/KAy97hHDvhdeFJWpVgsfKn7CrCr6DfwgwBH5sAd5gsstUVTxgpZ4XP6YDldO+dbcI/xisUWybyeTBzxcNe6j91WzaeFBEMaUSjWCoOJ7B7MMmw49UWn8+uMIg3JtnmpjmSCsYnLDcNCHUW9iF77ZSEVBJCAMawTBDMae4gRhyfM+aeaB8GCyJ22Gs1khPF3ER34wqA4rBGPNs8cw19tL0DAa9HDGjxGuVeoevzR9MDtMZqmA7wJJdwmTAyKbIRJRjWt+w5guWAXSn6JtTemgUpD3KaWHRCZDU0U5RWAFzBDcAdjEazuqMKD22I5qATugqhLiIECLxuYGO+yiskNPQnZSRKu6UN8uzZLQiQLsSMiSESbpo4sN9NYND5MKui6UZRabHhbv4TeCiBdenvXAZR7Hcarg+4+nw9pxW40ffqZ1GaK6DxRQPilWX39NbjrHMTnJoF8MZ7NoFTNqHVFauwulPYworCg0vl1s1NomPXxGmI/QukKkIthag1E+KUOdhN6miiMmYbC/gxr2qQQznizVG8DmE+gMgDLGaawolLO+b65wT1oLxmQk7Q0CoBREYCzdgy1mn/weVM0jOspH24FW5P1DJD0k1g7rFHmaYNI+2mYTnEKcK5jUb2r8FJQKCIIKSjewtofTaeEKiimFdoC1fSAnSJOEdJj4kbuicE6dKFv4+pv2edDpSPJtORvWC805iw4CnLE8vPMVyf1HpBJiizlhGu17/fIEbRIi8QFUnqb8/lc/JVMhRjxcJ+54FoST8TRe54e05IbA9qmVm4gIh1tb7O3+LZmESFQmzX0oJs75XLSAyPwoKofOh4RmxGytirKGZw9u8/jxC4wKMc6d6LoKyFE2QfIhWqKi2Fw0uXzTgc5Fn4GntmusOz26yRaC9Bod9PsDNl/sMkpSgrCESMxUW38x2XYyMLMAor/hLAzrcNZinJuAtKPeEZlN/dAZBVYczvpQOlCaIIwJgxCnBExOmh6Q5imO3LdyWY04wSqHFR9/ijOIhGgVe2hJQCnB5iPyrENmE1DjW/cb1DpBtN8AFt9VFAYhoQ79mC3rSJM+WdbBOF+LtM76eptzEASEQYBITiZBsf52qs1IvkG7WJHGe2/lo/hJnlfAa5P/QxAEmkq5hJ4qDXjicgHeOj/Cd9IZ68bTZd84QXpqmJBMzIZSgrEGHcY4ypgx90+KOm2BhVocqTFEWvlpuSomiCtTk/wK7VPWR8f4vjfrFY9QWUTlGJOjg4BQVXBUySY5VjFG1fnRjq6YOY04rFhyY3A29/W0IPIdrcUYE5z1RehxEOEM2qXFlIxTnH73TQh1fhP5yRj2OK9/CQrxCxbU6w3qVy9x+CCikw8hyotKgO/NmUzwM2nR7+Zd4uu177h327qiZhrGRGGMiDdtKoxYPnsJVT9PqmYw+DIQzvqu1aTD0fZT0s4Gig4qLnPx0seoyhmGNsZIOKXUppje7oHpUAzDXovO1peMuo8QLNXKEisXbpFGS2SqhrW28MmK6VHegfbV6+HBU7rbdxkNDqiWFLNnzrF65iaZbpBawaD9BlSCSrv09l4wPLwDya63WUHgA7IpTqco3kqKfpRyYR7FTfJBJ6eSJDfJWovfOn8GgUMXUh+bhxzyoS/zWz9z7DWN46danoodqAN0GKIEhqM+qlZj9epVuPYTKF0+jjalSPgOn/P8s3/kyeE2SdKhOV9j6eOikcXWQcrHn2GPJzP5nHGA2XjI/WSf7e1PCbTiynvfZfaTH8P8t/zrnZw0aRMIy0E2onfvn/li5xHtXp9KucG5K++gP/7PECx4eGwMrwUC7Q3Wf/2PtA8eoE1COdDoIPIxgj2udZ4YXPc1gYJzFpMnODtCccxXkcno5AglHmEKvOz8NyL6mMOJQ4n10JIdYUcdP6oK82aK4iR4Kpq+xRGXSojW6FDRH7awpo8KQyiNh2tHRR4FxF1sWMfpCIthMOp5nxvGvuFD6i/zCYsWKFyMCWpkQO764EJyJRBXIaxBXi+CLz0FwI79uQUCMlE48QQgtPawXNyEcL6YXhv6a1WAPmSQ56R5RiOAOI5QQVQ4LfXN8mEpSsR2gDNttE5PqaUmDOvooAaEHpgWUaBilPIf6grKggOsSTEMMFnfs8l8nPamatDU9Aa/78K4hA5jMJrhoMswaVO1ebGIIRkKhfLZXlBDlWdRUcX3U6ZDSAdg8sIOq5fiuOOxMTGJi8mdoJRBVDF0IHdgVJHoh0W5hUkXrCsGkbh8wDBNSfM+TgxhFKPiKv4shQpISO4KQMFZbJLR6R2RpAN0qIjiMoSVE21ub53pOYu1KemoTZYcUI+Y1AXHg9iVqqB0FVR0nCBFURMdVHEumDSyO2dwLicd9UmHPd/n/RZiO8FnL3CM+twiYW0RWwyG67b2IekXyGJ+3I0LEMSE5SYEJZxz5NkQ0z+EvA/OYGwxw62w+FhvPU3xmQ4NogtccMo0FmcJjV9n3XH78Zg5kKUjRqM24voEgUFFEVKpe8KVxUNtk56CjGFnh7S3iTMjgrBCuTYP1QXPwTnB73qLNROHJsdmA1zeI9DmxDbNDaiwShA3JqgUYjPiUpMgqGKtz+v8oUljomzOqN8Fmxfe0/J1ox0cbupcHX/ppZkFSvVFcqkQhCXaB3vQOfAoCxmBOs5GCGOiagMdlRClcCZl1G95lAQznrp/TICeztOVQgcaUXpyCIaaTEX1/06wzemv4spNnpAOO+RJC6Vygij2p5hIWJCcpgbD5iMG7S3MYBtNThg3KNfnPUGL6ZqhmwqLvh6JsumQLOkhNkFcNsU+E6xT6LBGVJ4BCYpbVpq4VEEFQmb6oPKi+VGjpUSoSgx7fcjSY76/fN0GUj7kn77guEpj/ixWVQl0maODfZLWOmTbIF0UQ4TEq5HOKJcU5Tj0UycMjLpHnrPIAJEERYoiRyQFSdGSFYfDDNBqhBLj+xecwtrcT4qQFEiQ4vlKUkQSNFmxEAMkb5ONWuRJl1Ar4nIForE/NijJi/tKYbRH5/AZ2XAbJY6oPEelvujRqCkCl5xmcr9WdobhoMewP0CpCHEaVaylr6hrwriKVGZAxUW0GUTE5TqihTTvYJ1C2QhcgFYRoQ7pdbowGkDl63eQvDTQubhwHbOwfJmth/PodINR75DW9hOWzz7xKqeNL8aqCMyAQGXEoSaTEOWEYbsFwzYELQg8h8ZphbiC6OoE0QG4ETY7wtnUD2tTgjWZ19q862mC1p0MdqQY75G1Sfs75MMW2qXEYZ04Lvvrz/pFsbhAtc2A3uFzjvYe4dJ9oqhGuXoG3VjyM7ALp3qiH/GNEHDOoNdh0O8T6tiTvIryW5FkEZUaxYjLuOCo6ZC4UkdHZRIrGFucAlLYpFAreq096LVgdnxoxctjnE6bdndCnAHNpfNU5s4y7K2hdIeDjU3Kpc8ImmuMVNUfhaCEwOaMjg4JB9uUlEbFNfqH+yR3f4OrviBVZQwOp6SoeJlicLoitJZB6xDV3aIS1Am0Imm3SR/8DlfdZERcnITipgyIRkmAy0Yc7e9AZ496aYEoqJD12mRPfovdXGPkwqK6LZBntPc3yffXCY0irswTzV/2/JWg5IOjEwdiOE7OLzuGGp0rBhHYIVl3l7Tboqr8BEXrpGivU1gVUmrMFxWWYFzG0sTVBuV6k5EKi6PF/HAZV1DT0n4bjvZhJYHQTo38OZnqHUd/ciIBVmiC5hkaS5fpbdwhjuZI2h3Wv/w1RkOORSRHSY52guSC5I6yBJRKdfJuh8d/+IVHP1yOdXmBrvgbd+KhJe1ClA0gtVSjBiLQ29/nQfu/YzUYxmcNHe8y5Yo41wWYXBCTUYvmcEBrZ5PO0R7G5Ribe3qhaEQibGqIhh0UMeX6EtWl69AoxvBL8IqhCuPP1Sf8jhTTnMi6DNub5IMjYhWgRWEKrbNOcDqkOrsEYRWcMGHOhpU61eYKR9EZMmcJxU9dxSkEgzKGo911Zq4PIEiLHgANr+jFPp2jTwQcVVlYucRefYk06yC2ix10SPOUzBqM80e/KBSBBJTDMqWwXAQIlmTQZzAakuZpcZaQKQION5lRpiQkDsuUoxKB9olymuaM+gmjPMWOA66pkSL+zKKAKIyIgwitfLNKmlmGwxFZp+dLZs6glSLSAVHRG2+NJSg1mTlzhfjMDd+v6F5VcnlNoOAoIjVH2m3RP1iHrE9Y8cVjUeO5OIKokObcgs93nRCMqWdhuUpt9iy6dJYs3ceqoW9ULBo4QmXZXX/KzLANpTNTzKjXo+YnBSggAQsrl5hZucpedxedDSiFiiAsIyoAHfh0zPpzf7RostyisYjJCUQz25jzz/G9S1OjLZjgnhT4Y577hpMwKhGVa4TGTk1wOB55PN4sGoMyKcYUpxDpmFJcJZw6AyLSGjE5ygx9qmChNrvAwup1f4yA1HzN8VVTeWU6aDmV/RlH/+iAYXsTZQeI5MV5jcc+Oi6XKc0veOhNZDy+yjOiy40Fwtoi6X4Lp4+bARWOSBvaBxtwuA7NZdBxMRvyDSdZOqbGVyloLLJ0+RatvQ3MQY887xGGiqWlM8yu3sCU5khMgJMIl2dsPn9MZ/cpESNcPuTatXeozZ8lD5skxMVoY18pQARxGYPOIQebd+nvP0CcMLd0ljPn3sHG86Qu8oyycQgvEGAZ9Tu0N+/Q37tP5ixx3GTh7DtUl68jUQVEEUpO3ttj+9kdBofrvsoe1KguXqa0dAVKcxMi1WsT85PDWY6XKesz6GxjBjuUQn+AlS36GK2D1BjmZuagXLSQT3xeQXeoNOYpzSzS2b6HDYpDcp0/gUu5lEFnm97OI2rnr0HYONnw+aYiw6TRImThwnvMbK5z2N0kTXax5ISRJrp0E859m7JqAFXIh2SVT9lrdzG9PfrdQ96p1wk/+C7hzLuUWThum0J8FGr6NF88pNVu0X/xa0QU5dkFqh/9CObeg7zgbY4jTq3A9am8uM9Ba532aA9rQmaWznH2wx/A1T8H3Siq9B149CseP7pPYix5mlBbusripQ9g/jyoMsWuP9Wz6E6OEhyTb6dO7RwNWhzsPCHtbzAT+wMdRTTW+t6KzFgWV1ah0ig2iJ6axa0V5eYC1bnzuLCGwye7Y3hLCSibs7fxGDo7/rTkV/bjveo7N8G/AVR9jtWrt4ia50hklmEKL54/ofXoDgwO/ZzJoAbxHPWVG0Sz50lVhcwJLzaeQu/Ah/dBHcJZDxgH8yBN0LMkUiOXwOd1kmKV8ymIqoGehWAOwgVQc/77LOCw06XVaZEkbXRcorF0CRYv+QHmuubdxOEud2//hr2dJ6TZiLg6y/KlW5QufAzVM8XZedPZ7akI08nkIAw3rtgIYIf0Wi/oHm6g8qGfKeaOz93MraDCKvXZZT9BsYDM1DQuS6lJc+kq1eYyo9RgnStmRVtwmmq5yv7mczjc9AfyTvkN506eZnkMsBzvNJPn/rxXNAvnr3Lu+p8QzFxFx7OM+j0e3f4lvS//DjpPfd+cc8TNFWaWb5BKk2rjDNsbjxhu3IbRQQGtOdKCupcXH2xFcGIRyY4JheKKPoMAYz2tjsDjpHnngI3nd+i2tokDRVyZob50HapLPnJ0ORw+5u7v/o71Bz9lJu4hLmN++RLLV74NM9eA+gkXcqIH/TTfzampViFg1GJ/4x6Do12qUVgUA+zkbFuLpjqz4lvJVVRsgmJowvg4TnSJ6tw5KjOrdAaWJPeRkBRbJAo0Sa9Fa+OJP0kZT4mbdv6vG9gsQBDoguXr+8Ev3PwTlq59Fxsv4oIm/XaL+7/7JwYPPoVkC1SCblRZPn+ZuL5CLlVMmrL59A601nzTI9kkDrBT/P8x1U/G1YFiEa0orEyNEcv67G8/5HDjK9LBIeVyg4WVq5SWr/t8ihS6mzz8/X/jzqd/S+z6DPtdanPnOP/un8K597z22/Ct5jvKSwFoTnK0weHGV+SDA0pBhHYFY71oz1ZhmcbieVg4D7pSnN3u5+hPzY2LKFUXmF26jK4skksVO5l17KOtknasPfwCDp+D2QOGJ3A7d3y07slpp5OsR44R5eYiq+9/QvPCh4yCc+iwSdY55M4v/i+Gn/81DB4AA+YvnGXx3HWIZqlWZlh/dI+jR7+F9n3giHDS0nzSZFvr2d7WZRPqni4GugUFltjff8LO48+Q7iNiyQnLiyxdeA8WLntfevCQh7/+ax5/9n+wVBqirVCducblb/0V4bUfQWnJU+9FXuEv1MspQuHnvLWzkHU42LzHcP8+Yd7zOa7znVmmAMKlVGXh4k3PLp/MASiEN5ltqTRRdZa55cuUZv/v4s7rOa7svvOfc27q3Mg5kGAmOEOtZjySqzgr2/Kqah/84v/SLy5XyZa9u7JkjTXJk5iGJBgAImc00ECnG87xwzkdCZIAKa/7jUWC6Ht/J/zCN8zQ0IFBH1vYgysdfCk43F5j/+VDqGyY3WdBuvo1lc3pukgCZEB27CJzt3/B0KWfo/0hpEwRlfd59PmvKX39Gyg/h4zDjflbFAcnQaQQMawu/ACrd+30uorb7E/KjklCpz9Px69v4UOrW2wvfsvB2kNUZZ3Acxkau0p6+ioEKdh4xqOv/pGFb35DgSNk4wTX72du/hf0XbsDhTmQObR0LAKvFwz8piawBhrUSmtsvnyArG2ST7W9bZuFeYwk2z9KdvoKYHCu2tbXbvPY1HZGhedRGJqkOH6Vlb01Mq7Ak6ZgSCzGxBWajcVHDE7PmXvBMZIeWjgd/gNnmDxqwPHJTV1hWiUkukFpMcaJSzi1Ks9/+Iyx8hHTP72DOzrBhbmLLJYWkamQg+111p58zVRxCiaLCDmEa2lVSrQDKLVEas9mgR3SOskRB8vfsrXwB1Rli0BI+vommJj7CPyAeOFrHt//ir2Ve/TJCjpMEP4wM7d+ycCtXxo3FicPeOcwn9IdYqYxJCX2N37kZGeRVFwh5WdQFlilBSRaksg0I5OXYHDSog2clqa721U/Nu+m/CCDMzfZWHpAPVrCF9q0hZBoNBnf42hnmdLKI/pHLkN+CGGHnD2T0TdDlJrVtVekOHOLy0Kz7PjsvfiKqLqMqw/ZevolhzvLXP3pXzFQzHI4NMHRVh0/rLL27HtIDzPl5mD0Q5NN6vCVvS91S2jGJDC6xsHyfZ7f/VeigwVS1BgoDhryqMhy+PA+T589ona4QjreIw5jUvlxLt76CwZu/woGr1lruNQ5rLV1T8M+Ji6tsfr0a8KjDfpEglQKhWfFUc3CzvSNMjh12aAAkrb8b+voF73/v5+hf/wCfeMXOFh4TibvWqkMc2A7gBM32HzxI4XxmziXR8EdxNGpMwWu9TtVmxWKlyM7eY0LroebzrLx5HMqx+vkogbx3jZPv/09g4MjyOgQ303Q+MRxzNbTe7h4jN0Gpgx3zpNRy0FECLcjcDHEexwv3Wfl/mfUNp+RTkI8x8NzfGrHhyw//Y6jwwPC8h46rFJNBMWhK1yY/wsG5j+FgUuGk98JozjTMzeds6wBclRm68VdapuPSakQ301b+7ZmLxOUm6E4dsVImxCYTLPjSmipQYjO1FV6pPrGGL94ndLKN9RVlbQl4DcTl4wL5e1ltl7cZ3JwBgazJl3uqdnFWRZj818Gg2Qmc1xI5QhyfWwtfEGyv4CMy9T3V9ivbNumuZG29/0UUb3E3uM/EoYxk2GEM3ERX9dwpTJDZe0YIQMVwckmpcUVlh78nurOAtnkmIzly4WNhMbeFqHeIQpreEmI56foH73EzPz/JHXpU+i7CDKLUrKjxSbOBC5oxVcIIOJ4a5H1hW/xq9vkHGFcPZH2yJcgHFL5IUYu3DIe7ARtoJR9XW63+nNzSzqIVIGx2Xl2pj5kf/F73FSE0GEL8ieFg4w128sL9A1PkE0VIZcGHSA4oy+qOIX26wX4w7PMBmnyfSNsv/ievdWHVA4WScU18hkXTyr7fSWuhLheYefFQxqNhPGZS8S4eLUSOa+IVhBXjuD5D5Sqd1laWqZ6sIKvKvgiMVw5odAqpF5rUIkSlJOnOHyDkZnrTF7+EMavQWbCotY6fBvOxyJpYv+husXq46+o7q6SR+E5vuG728w8VgIZpBmYuEhq6koLUtGrkuK23mBTndySEIVI4/dPM331Z+xvrNJINnEd3RIH0FqQ8gJqRztsPf2auf4JxNwQSKvqfo68pbOkNYP9DBQvMJAeJjN0iczwDLsvPqN+sEC9vkui67jCx5U+jtakXEEUHVFbvc/a/iJ4Aap2RNY1J8HxzhaVUolaGKFqVQpS46LQMSilSVQdpepox6dQyJMfn2fs6h2yM7ehOGMTEx+lJFJ0gV7OAwyzDegTdhcfsPn8O4LomIzUFhtjXWFUgkaSzg8wPnvVjJi0e+oOd8XrYbNIL8fI7AeMXHzK5qMdvLSPbyCnpnEiwBMxBxtLpJ/+BxN9RRi4Zjrh+Ogmslr3ervqDmX3Ht/JzoZEkCE1PstsIc341BRbyw/ZXV2gerhFpVaGsIKbHBPQwHFN+65yvI8WGl8meFaSJKztEZ2AFh6OdGlEEdUkQSkX4aSMjVp2gOLwOCPTcxSn52FwDoIBwAooWE54t/XJG3BXPQBnIYydz8nafRbv/T/U0QtSMkHik2jZ4qsnCMj00zd7Czlzw9jUdWjedBFpu7LX3qXipBHFSWZvfMLm4g801B6uo2yWY0ckQtEIq+wsfUe+6JL/MA2FYmvgqF+BAOg2DVr0kOo70AmtnEoEkJ3AzwwxM3iDsSv7HGwtsr/xmPL2U5LyCjrct3V/glB1hK7boWtipuwqNim9TKNJmSm8nyKV6SdbHCc/dou+8Q/JDE8ZTTPfZpI22WmbGnOWm7zLKFHKdvNZHyzz4t7vOFz9jn55QErmEMpHWkZkAmjXJT8yw8iVj6EwBVhL8VPQJ66gE0qN1crDaP1bhYKBCzeZ++BTlu//Dk+X8AiRwupoCUHgBVSOj3j5+C6X0hNkbg5CegxBzh6h3QhroU9/CeK1b8IxD5Hz8fODjI1MMTZ3nehwnerBKvWjDU7KZaonJ9SrhzRqZYNt0ZZRozVIl1SmjyCdpy9foDgwRGFgFK9/DAozEIyapq9ocvecs/NDTlfr6pgumHtu+cfPWH30Rwq6TspxcWwnpTnZj4VPqjDM2MVbMHbVCKMq+dpa3+3SIulsbWFkoaR0ITvM5Z/8JTsbK9R3vycQMS4Ct4mwxsGXmpPdbZ7f+5L5TB/OpZ+Bn7IePc4rzyXObnHS8RYc473nFqGYw8tPUpy8TTGqMBpG6DAiiWvopIFOYlQSG7MlxwHpIj0f4XiIVBqCtPUW8szC0AFvMl57l49sBq6xz9bz71i6/6/k9YHJLpWdQHRQrmWQoW/sEvmZeUgNQxLY3X/6wnBff7na9aBN9umOzXHzz/6Kb//PS9wkIkUDIRIDkUfgIgiEprK7wdLdz7mcKsJ0Gpw+BBlLHu4NyDnfRlPhV2PloQLz8jM5yBhldLd9AHVc4J0NRVvzJR3IMe10E0Jfmced/3vKFi5lj4Olb3j81T8RHawykpb4JpEb2QAADZBJREFUCIiavH5FjEDJgPzIRSau/xxGLprxkuN3v6ueu9R9E4TPkaL9xmSaoWsfc2FjkaW7v0WIEg5lHCRSCCSSQDqIJOJw+QnP8bjsBDA1D9JFKI0WTtswQ79D4ESLwWYATo5jBbq1lUO0xhPInmRId4NpdCdy64w16Vm/ZivhSiA85Ojl9zz+4u+pbd5nJC3wtYbEnFYITUJEqDzS+SFG536CmPjQZOzSezUp0mfYeZ0aHLpDP4Sgj+sf/5KT8iEHi1/hEGKlYnC0wtESX2qiuMb+8hMSBNfuCJg2rSuhvBY1+oyNmFfOr6YyU7eip2i322gb84pXzpKOxnGnQVUXAk53SFudb3GJJqpexBDucfTyLvf+/R84WX3ASFaQEoYz0brzpaTRiElSBcaufET+ih3qWuEELcTp7p6nB6/bcqsTvaA0OLjQP83Vj/8X948PqO48BlHDlXVDTNEJjnQQnoNSNUrLD3kcx9z4NIHZD4yXnhBoEbS6MFK/HT3R28ITnVFoQep67SdFl2Vp5z0rToOTdMAT2jPBbp0U/bYaTrbvuINnX/L0P35NfeMxYzkHT8WQWB6FZbiGEWgvy8TlnzB48w4MzFivQc/yI99yp3LGK1pjVRDcHIXZeW5+8iuCgcvUdJqoaZetm551mkBqAl3jcP0J93/39/DsG6AMwsDVHcHb5R6bKjPi9OFu56BetLqCTQFUfcpZozuWper5c9up702Y8FcTPyMiJKT9qco6q/f/wIPPf01t6xGDfkSgYxytOw7xhEQoQnxGLtxi+vanMHrNjJfwzPXC26n/rui4z0/dovbvnFbyYuZwA5f+B7O1Gk++LHNYPqTga9LSdAeajspSCDwdUdtd4pv/+3fM/2yXzPzPrWGUbqlNCC1fWTfNoa5Ed5MhxavQwtbPv7EH17t9xBuxlb0AvV4ZbQVooXBEMygnJLsrrD3+I+tPvoDSGnmh8YXTkj+RdiGGcUgl0gxcuM3UB38JYzcMlkY5lmN4VpfMROvzX8uW6H68w8q9f2bp+39CHa/R79VwhIfURqckUe1+aYQLmQGmrn3E2Ae/gPHrRgRc++ZL43R1gJTU1txCtycPr/XYfO80w65M2b3ze1pOrQAKULY53pzLHS3/yPLDLykt/0BQ38BXEUELVG56mo5UhHGDo3qd4ZnrXP7kb3Hn7kB6FETx3M/1jsGjNWJRBy9YefRHlu//Fl1aIO87pKQpL5Rqo1sUkkYicdJ9DExfY/bGn+HMzkNuzLSgVMqk7d3cIisU0C3xqzvFCv4kgdSv5Gu6F1ep2hyTVjZJHQ5XWF+8x/az76lsPIH6IVkZGnCepYqbUMdoEXNQbdA/Oc+NT36Fd+UOZGZAB+iWCsfZP+67PqpRiPWQA3NM3QpwhGL1foPjgzUcP7ZNU0kbwJbgyISovsfBUoVaeZvB3TVGrvwUOTIH3nCL3ix0zy0lROsO0529Q8E5pthvSorEW2470XYaM/pa0ChxtLbA+tNvKK0+hJN1svEBjjQpiWghxDRog8ArN+qMzl7n8kf/G/fSnxsna1FosbnP+3mnndfVc5WAaqAPFllf+JrlB3+gvvuYnJuQdnVLLlE0dU8QhEoQ4+Lmh+kfv8jI7A1yU1dgcMbwvrEaY9ppGyZ2+ab33FLnfYKe8k919Zm19TySrSKkdZjqOlQPaOyuUNp4yu7yY452lhH1EgF1AtGwJwWttpxGE0YRVe3RN3OT6x//Nc7sx5CetENd/50X3nscm93gMEfHxOU9dp/9G2sP/4XK9lPSqkzaleYexLVYGdGSFlYIpBvgFYYpjE5TmL1NbuoWom/cEDZIt4On2vmx6inPzh082b7HlBWm1KK7+dwtTBdBeERlZ5nS6iNKq49o7C0iKjs4SYSLoR8LoTr2boRSdaJYGeje5DwXPv4b5OxHEBgnlvc9898reF3jI6tVzfEapZV7rDz6nNLqfXRlh4GMxBfKAGs0BjWsTbsqUYIQiXYD/L4JiuMXGZiYozB2wXDdggFDVsSI1plfJF+db73Hzd2cc7bTlcQELKlC5ZB6aZPy9ksO1p9R2nxBcrKLk9RISSOPL7W2Qj5GP0UTEyaKWhTi5seYvPQRE/N3YPq2QWqTNonaezZSXw3eO7Suuo8xDY1jKps/svLw92wtfI5fXyXnRgSOjxQSpWyJYBMUpRWJVkZB0vXx8oNkByfJj14iN3KZVP8UFEfBzRiCCz0SxecN4GsLqARje3pIvbxDZW+d8vYyx9uLRIer6Oo+hEd4MrHKDG7Ldq7ZhFZJnSSpEkqPoDjMxPU7DN78FQxdNeBc0mBPHink+wVPxUqfpmZ01rS1d7ojmgVYWCLee8nm029YfvgZ6ngdNzokHxhbzZaTpPVBNeoMmkRrQu0QSxcn3Y9fGKVveJqB0VnShUGC4qDRVPGzJphuYBu4HRER4s2XnDBGVKgY4oaRcQwrhMeH1Msljg82Odpbpby7Sf14H9k4IaBGICIcHSGFMipQjmsmcdrIXsVJg3rsIP08ubHLzNz8hOzcR8YwWGcNjEK2n1e+785r1Bra9/1TGqy6ZRf9urbV67sQ2koDJ1Dbo7z8gOUf/8De8y9IqX180cATCdLNoIUVnFHmIpLCAJ0SrY10sRa4fgY3yOP6OfL9o6Tyg3j5IfzcEOniEG6231CJpWf57U6HJ7W9zJSCxL7oKETVqzRqZaonB9RP9qmf7FE/3KdxtE9ULUF8jFAxQitcrTB8YWXnnYoEjXQdBA1UUiNMGsQkuPlLjF38hIkbn8L4LXPsO1l0IizC4E/3EUelI53JZHBdt7vFqfVr525vCx50+gxG0DiC8jqbP/47Sz9+Tq20iq9PCFyN72ocK8EorJCb7hhJxUohpIfSDrGSxDgo4SGDHF66gJcu4KZzBKkcnp9Beh6u7+O4HgJBojVSSuI4olGroeKQsFohDmuE9RMa9WOi+jE6ruGqGE8ZEThXJsZgQwhDMlUGeS2lqdqUUEQqIkoUjThBuTmGp69w8eYdUhd+Cn2zho1Ek9XzfiXNqe94d2dXB35AOpPGddxXThneYed1jd+0lfPWIVT3iXZf8vLRF6w9+xp1vETeLeO7BtgjCZAEXYM1o4In7OxCEivjkqWNep0hjmD8GLQ1hJKOY4bIWqCUMqp+WqGTyLBvktDKO1q/LW2hhNLB1Vgdzib9Wdk7zXjPKmISYmIaVBpVInIMjl9l8tqnDM79DIZmzW4TQfta6EVY/cmCt72rhRCkUinS6bRt+ZylsH1z8JrMI6dZ3CoLetV1ONmkuv6E9Wdfsv7sa6rlPbKBQWJ72vQLXWF83RJlslPHMd7kURzjug5oI6ajtCZWygQOp6VsZKQfXXNiWjni5kKSoqMxbec4QlpmjlUuNh7uNusUZrEoIamGIdUwooGkf2ya2SsfMTr3ExiZN90S2USOWw+mc5Uy4vzBQ0DgB2SzWaSUreHm+wSvs3ncpYigE9AR6AYcb1HZWWL9xT1Wn93lZPcZgdqnkIJcyhD9HSeDEB5RYgpnKUzjW6nIKEFYtSalpc1gOyU0mt12UzA3BRq11W5pCr8mNvszhEenhU3V1FG6hnQExydVytUQ/D5GZ28yff3P6Z+8hRychsywhdqn29N68ZoUWLwFmXuOAIq9nT3t+z7pdLp9750i0fFOwesxftCdkwutwdFGT+xkm8buSw42HrC7cped1QVqhxukPY9cKofnOriO3cVNXx2RIKQxgTKkRq9lPNw9GVAdYyKbTMmm6DbWtcXML4R00cIhVtCIY2phnXKljBIOQyNTjE5dYvLiPKmJq8aeJj1h+Qo+LavxriCp822u8wavclzRqVSq+7h8S6131uC1B5ltQG9XR0TbXUFk9DzrJZLjbY73NjjaXmV//QX7G8+IqjvE9R1SbkwhkyYTeDhOYgIojAuk0j7KDjGbA8920FRHOBVCRgjRtCBQJFrQiBKqtZB6qIhEAH6OdN8Ew5PXGBy/RGFomvTgOOT6ICiALFonlg5HCN374OcF65zz2EziRPcWi7oDXPq6GvBMk+WOh9EtnoPoHq8JO03XGBN3FUFYg0YVfbROrfSSk/0XHO48pXK0QVgpc3K4T6NeBh3iu1YTxcsiZbpDA6UJYdUd2DjznI3whCSpk8QhSkVo6ZPKFcnlB8jk+sgNTlIYmSI7MIfbNwf5cQj6wEm3HV1EgOoobqXuLI7VWToC75+wvK49pjt1ot9SmHcV9Fp3AGZ7dl4r6u2RgO4YcormtlS2RkzqpkVVL6Gr+8SNEyqHB1SPD6lXTwhrx0ZovFam0QiJwsjYtcQ1tI7RKmwpFDpuYCTv3QDXTxGks6QzedKZHF4mh58tkiv0kc0VIdsH2QJ4RXALLTZqt7uI80qD/LVIof/fwTv7OKUnAB1wgh6YsZVBphsr0gsTOm3Mo5pWTabAplGHJEJFDeLaIXH1kCisoeI6OjkBVTFyhzqyQtsCIXyETINM4wQ53CCPH+SQqRz4GfBTRlnItem9aKrhOv9lL/+/NXi9IKGunSdebVNpfbrUhzgV60W3CVbn9kwSq5+pIQ5Ni0vH7UwWYyTRLY8vTQovjACNURFyTbtKWiFVnJ5jzircI96ys/5rd9jrPv8JfSZvuE5RF4YAAAAASUVORK5CYII=;" parent="DfvMqDdx91Jrw5Rlsuxb-1" vertex="1">
          <mxGeometry x="280" y="80" width="80.73" height="80" as="geometry" />
        </mxCell>
        <mxCell id="DfvMqDdx91Jrw5Rlsuxb-3" value="" style="shape=image;imageAspect=0;aspect=fixed;verticalLabelPosition=bottom;verticalAlign=top;image=data:image/png,iVBORw0KGgoAAAANSUhEUgAAAMgAAADECAYAAADamm7lAAABhGlDQ1BJQ0MgcHJvZmlsZQAAKJF9kT1Iw0AcxV9TtSItCmYQUchQnSyIijhqFYpQIdQKrTqYj35Bk4YkxcVRcC04+LFYdXBx1tXBVRAEP0Dc3JwUXaTE/yWFFjEeHPfj3b3H3TuAq5cVzeoYBzTdNlOJuJDJrgqhV3RhGBH0gZcUy5gTxSR8x9c9Amy9i7Es/3N/joiasxQgIBDPKoZpE28QT2/aBuN9Yl4pSirxOfGYSRckfmS67PEb44LLHMvkzXRqnpgnFgptLLexUjQ14iniqKrplM9lPFYZbzHWylWleU/2wnBOX1lmOs0hJLCIJYgQIKOKEsqwEaNVJ8VCivbjPv5B1y+SSyZXCQo5FlCBBsn1g/3B726t/OSElxSOA50vjvMxAoR2gUbNcb6PHadxAgSfgSu95a/UgZlP0mstLXoE9G4DF9ctTd4DLneAgSdDMiVXCtLk8nng/Yy+KQv03wI9a15vzX2cPgBp6ip5AxwcAqMFyl73eXd3e2//nmn29wM+3HKScRYRcQAAAAZiS0dEAP8A/wD/oL2nkwAAAAlwSFlzAAAuIwAALiMBeKU/dgAAAAd0SU1FB+UGHQ02Mu59CdUAAAAZdEVYdENvbW1lbnQAQ3JlYXRlZCB3aXRoIEdJTVBXgQ4XAAAgAElEQVR42u2deXBc13Wnv/d6RTfQ2Br7RoLERgAEuBPcRFGURFOWZEdLrFimvMRLMrZjJ45jTyWeTFWmKnGcxJnEzpQ9dmYcS46teDK2LMWSxpRESqS4iBvAnQRB7FsD6H17y/wBK3bIbrIBNIBe7q8KpSoV3+v37j3fu+fc5RxJ13UdISGhmJJFEwgJCUCEhAQgQkICECEhAUgWSMyNCECE4oMxp8lDAdOySRLTvMs0ckiSaIs0kFE0wVJ/kgQYwsUSmh0pxOAsRhCh5Ciqg6KCLINJFl8uAUiWu1JRVWfUrTE2pRAOKKyeOo8UCSPLErLFTL9jNThyKS82Uu5IHBddVZFkWbhyApD0VCiq0+9SuT4UJr/nDJ6LE4THwzia/hYAQ0hHtUq4uj+GtNqJ1lzK1fZOKktMVBcZsBglAcpSfufELNbSKBjRuTmpcL4/QsHpU6jdgzR2v4D3vX13vM7x0gqudj6Csa0az7r1tFSbqS02YDFJCQGiqyqSwSBAEYCk6Iih6NwcVzjdF6Hw9GnM3ddZcfl1fPsuz+k+uS83cXPNvShtq3B3dtJaZ6HOaSTHJEYSAUgqSNfnZGQRFXrHorzTG6bwbDeOsz1U9J4gcH/Pgh7D9mobI41bcNYZUTvXIa1tpb7EgFU4ywKQZeFC02a/wAkCElZ0ro4qRM5dxnH6CBO9Cs7+HkJ7zyT92WyntqCtbcW7fivWjmZWlxoxG+fxbkICkHmPGAmCEYrqnB+I4j93jarTB9HO9xLa9PaSPGrOO13Ia+oZ3rCHwnWraSg3Yk4kmJ/jOwpAhOYRfGucvhHG3X2TxuMvol4ZItz19rI8i/V4F6bmSq5ufJj89lrW1lqwmoXhC0CWOMbQ9VkwTlwLMdkzTOeRH6H2TRDediwlXsX69lYMK5yc3fYkpW1VrK+3YrVICFQEIHOXqs6CkYAvrmrg8iqcvRFi7OI4XYf/CW1witD2Eyn5atYjmzBUF3Ns9wHqWktorbOSZzMgSwl+BSDrXS8ByF1GDh3QNJ0pr8qZ60Gun3ex99B3kUanCOw4lRavaDuyHqmimIO7PkrrOieN1VYK7AZkmbuOKrqqzhqKwSAAEfqP3Kiajsuncu5agAvnZ3jojW8jj03g33kuLd8p9/Ba9KpS/m3Xx+noKKClzpYYKFkcxAtA4oDh9YZ552qQk6c9/MaR72IeH8R7z8WMeMe8Qy1EK2p4cdfH2NCZT1u9nbwcGYPh7nGKHo2CLGfNiCIA+aU0HRRVJ+ALcfKin/qf/G8sV7pRfSru+65n5DvnH1yFv7KR/9v1DFvX2dnYZMdqs2A0SHcdMPRodBaSDF9HyXpANA0iqo53Jsjx8z7qX/oh+RfewrWzP2vaoODVWgw54G3bTv97f5ONzbnYHDmYjFJiAb0AJH2C7X/fnHcXqRqEozpTk35O9HhY+eoL2HmeUEkgqw3COmEjaHiSwX2PsL4ll/wiO2ajhEFOvA8EIKnIR4JgKBqEIzoT4z5Od89Q9fovyHF+S/iYMRSc+gRje/bS0ZpPkTOXHHNioGTSFpb0ByTBr5aigj+sMTnu40LPFAVvHKHA+feCggTknvo03t3baV5TRFGJHbtVxpglI0r6ATLH/UNRFTwBjckJHzcvTGA4dIrS4r8RVj8PTUx/Hm3Xela0lFJcaseRIyfmeglAlpAPTUOSpASOtMK0X2N81Mfw+WHUoxepLv5LYeVJ0PDMFzFvb6G6tZLiEjsFdnluq/OQNiNLxs1iKRpMeFTGRwOMnbtJ8Ggv9eV/Lqx6EdTn+hL521dR3l5HgdOGMy8BUDRt9iNnNApAllIRRWfcreIZ8zD4Th/utwdprhVgLIWuDH2Zom3VlGxooMiZQ1m+IXHX6930SCka1Kc9IIGIzui0yvBYEP+x8+hHrlHV/E1htcugS0NfpnBDOYVbWihx5lBeaMBsuLvLjK7/atYrxVyvtAXEF9IYnla5NhhCP95N4PwkzXVixEgFXR76MgUdJZg3tVNdbqG8wIDtbudSNG32vyk2kqQdIJ6QzuCkwqX+EJaTZwldmqSx7qvCKlNQVwf/iNxWJ+H1HTTXWqksNGC3pNe07/IBomlz+lp4Qjp94wqWC+cY6x5jujdIx/j38G6eEJaYwso7XsK58gNYWsvwr+9kTZ2V6iIjuZY53GQZ11OWHpA5rmN4w3B1JIr1Qjfuc/1UvP5TvPdeEpaXbqC8tJILrY9SstpCfmst0bZ2VpYYsZmTbzOZAchdwdC5NKRgvtBD5MxVio4eJLz5LKpVHBxNZxlCOtZTnbi378Hc3oDS2kZDhRGbKTVHkqUBZA4v5g7q9PRHMF24iPFMN3knjxPdfFKAkYGgmE5uIrBlM2pHO9GWFtZUm8izZtksVqIr3y6fyukbUcyXrpB34hg5584Tvfe4sKQskPnwFsIdrXjWb0FvbaS91kSBTc4CQO5y8F8HXF6V49fCSBd7qTz2OpZrvUR3vS2sJgtlerMLpameoY33YG5fTUediUK7YVmXRpZlFksHohOT9L90nG7zKlYf+hmmgWGiO4/O636OkyW80vJHGJ02cnNlzGaRLXA5FIlo+HwaymSABy7+BZ6N85thNB3uQl9dxaVN+6naspK1teZly++15IDoOkz5VM6+do2Gv/pjAgV1RLYdmde9Tnj+gtU7ymlvtBF0lCAb5dn6GiJL4LJI03U0TUdTNKyeCc5eCtB7eJTNhX80b1BMTWW4HnuK5nVVOHLkzAZEB2Z8KkcPDdL07DcIrH1z3vcarfw7mva2UlBgxm6VMQgmUkqqDv6QxvR0hO6XeqhzfXbe98q7spPhj36Gjg2V2K1y5gISCGscf3uY2m/9Df61R+d9n5n6b9B4XyslheasPzOd+qMKjLnCnP95D2VDn5n3fRyXtzP9mS/Q0lYauzbKIk0BLxmOqgauETf1/2thcExU/x2N97VSKuBIC8kSlBVbaN3XxoDzv8/7Pp6mt3jj4AT9ExFULdanfnGMIemA6Kp6W3VXHfAGFF5/cxJ38/zhuCR/jYa9bZQWmkUy8jSDpLzYQut72jgXnv++uYdf+wanTk0QjmpL9+xJ99lilPtSVZ3hQQ/3vPD1ed/XdjOPdbvLKSkScKSjJAmKiyy07CrDMmab1z38O8/S3z3DtFdB0293sXRNS31AYklR4dz1ENGSa/O+x4nar2Ctq8ZqEnSkq3KtEkVNtRzJ+cq87/Hkka/TfWEaRYkROitKegISVXX6RyKoFnXe96hudmCziTpj6S6bzUhZs2Pe10ca+zh/PYR66xAiSUhmc/oBomrQPxHBMj5DuHT+SdlWVpuXfIpPaBEAscqsqJm/IYdKA5iGp4nGi0OSPCm76Ban6TpjI34eO7awVDt5NhmjQRhYustikiguWJgn8PjprzM56b99NkvX/71cQ9oAomswOBFFCocW1rBmSSwGZoBMMuTnLtDsAkF6+sKx3awkZ0tZghEEBsei6FGRRF4oSTYV0bk6GEFbgtneRQVEBwIhhZrRQXxbx0XPCiVFvi3jlN4YQImq6Q2IpsHN4QB7T3+TqCMielYoKYo6Ijxw/h9we0K3r4ckOVBfXEB0ncuDEdSw6FSh5EqNQO9YFC0WIUlcSV7cGESHvlEFLSziD6EkAxLWuTSosNhe1qICEo2qrL3RQ6h9VPTondpJB18UpgKzf77o7P8Tiq9g8wi1F84SCSssZlMlZ04sxlZjTYfhiTAbLj/HeHtA9Oivf/2AcbfG+HSU2rEL4PcTDGsEg7NdnZMjkWOVwWanv2wNZUUmSh0yYpn0VwqXBljX8xz+4DYcuaa717NeVkBiMqNzYSDMuqBY3ft3MHTom1DJudKDt3cE140wBQd/QKjrBpHCX7VTADBPq1iPrmRqz1NY6y1QX0GoqY06pwGxHPSuh2Jg2KVQ7ly8bEDJASTG02k6XBtR6AgJXwFgeEZD6+khcLoXw6svQetZSgoMePYD3P4RiRQaiOzvx8lfwAWV0L904HrP44Q3NlPYVENpnsBEDelcH46yvlFnsYaQRRtBlKjK9ouHCXZez/qOvDGhMvb6GSqe/y7mVSfxbjfEhCKeIgUGItt6MLt7UL/5EMPvfw+RHZ1UF2a306WFNW6MK/jCOvm2VD0wFWPOWddhyqOwov8XWb/+cX1Moe+ldyj9/nfwbDhNpGBhLqfa9CIF3/sOA6+eom9Szeq29d5ziT0XXsPji7JYB8cXDkgM90rX4cZ4lGgou79wfRMqAy+fpu757+LfdiZ5hrHxNOXPfYex188wPKNldRvX9L/BxEw09oc7CXtRFsWCFU3nylAExZ+9nTfu1XEdOUfdv3wH/85zSb+/r+ss5T/8n3hPduMOZS8g0ZBM/0SMqd4EsnkuPiDvls+6FRBFZdvJn+LdciYrO80fgcCZ85T+4Fv4tp9btN/xbDyL5blnCV26ipqlcyFaSGNgIoovqCXk3SwtIL8sn3Xb1y2oUTh2IWu/ajfHIlx9YwBvy+J/ILxNb3L9aD8Dk0pWtrUe0RibjOLyqYuyYLgwQGT5tiI4ug79EwqRYHZ+0qb8OpFzF2g4+IMly0hf9dN/Qr5yiVAWMuLf3c1v9vwYlzsKi5DIYWGAxArQgb7xaNbGHxNTEQZOjuN98NqS/aZn9xV6z7kYnc7OUSRvopchVzSmfUoLrHmY9CDdF9IYGw2i+bOvs1QdnJO9dLz67aWfFLjqx+eNZiUgakhnzKXE3vq+rC5WrCEvpPLQmecIbDuZhe6Vxs0bXtwPDy35b7dbv0rB6PWsdLP0sMLMZJBRd4yXjzORtGyATHpUDO6prPyS+QIagwPLszCq5EcYGvDjDmSfaxvceYr3n36Wsankr4ckFRBNhxtjUSLe7FzhVRSdgGf53t09oxLO0n3yBvcMI7FiMFkGgyE1APGHNIYmFdRAdgboqqoTCSyfgfq8avx8UZn+cfJrjLqUpG85mR8gcfy6Kb+GOjqNFAhmZSfpOqjLaKCRoL4kmT5SUVpIxeeOEFVTIHGcrqox55ddHoWHuv+Z0M6TWdlJsgFMy1h80pIjIWdp8jBz0E3p8CADruQG6vPqTclonM3ifouGpxSi3uzdvWswSFjty3dAzJZrwJSlgPj3nmfTpRfpG4thfwvYl5W0z52i6oxNqyiB7N2gaDLK5OYvHyD5BQbMWZz9PupVGHKlaOrRCa9K3vAQJs9M1naQwyZTW2XCNrz0C3b2FxpwVjlw2LL3iIFxZobiseGkbtxMWmuOu1U2n/9p1sYfAPk2icIVTsI39yz5b1/t3I9UVYXNlLXNT2jXSTZcfQFXrGWGecYhSQNkbEYl5Mvu8+cy4C+tYXD3PgrOLl0ml+JDXvI3VGApyCXb5ZvSuDYSjcHH/DYuJs/Fmo4S9ahZ30EVBUZK19Uw7X94yX5z2vEbONtqKM0XiYFCM2rMmSxJlmNOLC0JIKGozqRXQxUZTLBbwNa4AteunRQf9i7675V/z0Xgvl2YV9VhFhmWsI4OUjt4JWkbF+cGSBw/btClsLrvInnuAdFDQI3TiHNbA1NFTy76b03tOoBzUwMVBWL0AAjuPsPqgTfxJuljnZRWHXAprLp2hMDeHtFDQI4JyttWMPL4U2jHH1i8Hzqzj8nHnqKwsQaT4ONXcYiH2PuyFh2QOAsuk26VoFd0zK+rJE+iZftKbjz+FNpb9yf9/vqJBxj5wG/RuHkFBTkiidyvy+9SuDkeXQZAYkjToXR8EOu4SFB9q6qKDWy4fxWDH34a6XTyRhLjpX1MfuwAHbvrKXGIoeNWqeMBvKO+pMQhibdunH31Yx6Niv6zKDuPiJ65dcD9ZTyyee8qPJ/8MJbr+xZ0v9wXV+P2fp7IJz9M566VlIlZq5gqGO6mdfgUoSQMInNLPRrDveqfiJI34oIC0TFx3S2HjHlrHdG6j3P57Pso/T//TKjt9Tndw3bpXka+fID69gocJXnkWoRbFU+ehwdwTNxkzKOy0mm4/UMfx5YXBkicG45NKRhcKhYByB2VnyOh1VfQUloGnZ+hv+8ZLl4KsuXn34qbdTH37XW889AnaGnMwfmUg2JnGQU2AUYi8rpU3C7ldkDmuGlxQcmrdaCz/yhcfhP3KtEpifizRbkymr0CU0U5Fes0HI/+F2ZmQoxNqYy5FGQZSguNVDiN5H3Iwi67E7tVxmaRRNmDOSg0rTDiiqKoZowL2OGcECC6qoKu31aD2hMCy9QI4/vF+secQJEgzyqRZzVAQRnGMshXdVYqs8O/yShhNkoYZcgRzTUvOad/QWFvI6EN+8g1MG83KyFA4uUWGp5SkF0KovTRwmQyMHuOwyzGiKS5WJsmyJ8awxPSyLXcYqCalvAZkcRMO87Nhl1RvONR0RtCqRmsT6mxk+kZDLdlBF0YIHHiD+90iMiEqPEslJoKTiuMTCkLOqd+d0DibBMORGHj4Jvktf9A9IRQSkqdDjPjChGM6DHtOpHzIXcHJE5+00mPRsjlF70glLKyt/6Ajddexx0jyY6uKAmdD5m3izU6rTAj4g+hFFfIFWDKd/s5JclkSuh8yLwAUVTwTXhRRz2iB4RSWoEZlakFZPqcFyBBBVpuHsG2+lnRA0IpLXnSjW/cE/t8SAIxyLxW0r0hjaBXuFfzlaZDRNFRtNl0pZrO7cVfpNkFRYNBwmgAs0FCFsskc5at5Z9pulqDu/NR8m4paKRr2mx8fYf1kHkBMu5WUSYVLGKB8I7SgbACoYhGVNFRFB1TNIQx4GVyKoTLo+L1a/gDOtote7NlWcJuk3DYDRTnyxQXWYnY8lGNZoxGCZNRIscsYzGKdr6b/G5lNl/bLXXlE4lB5ty8URXGZhQsLhVLiWj8/zAyAIGwTiCsEQrrWAJuQhNT9I8pTEwquFwK5b03aLv4AsEHLmMDbIn40YD+iw7eWfMIntpynE4jJU4jtWVGrCXFhG0OLGYZu1UixyyJjQ23yOdSCPnUeY0Hc74iGNUxjE9iHx4CAQhhBaZ8GmoghMUzydSYl77BKIODCk09x8lv+z4FzJ4GaACoAV/NPOK++86yhrMQBUZm/9zdMHD+aS63baa62sjKGjP2siKieYVY7SYK7bJI5ACEZjQUv4auzz0DaXxA3l1IuWUNxBPSqbl5BuqeJ0J2tr6qw5hbI+QOYBvp48LVEP6L4zQcfxnl/hNUApUAbYv/LI7W77NJ/z4MQGgApo8+Sn/nJkqb8mleZcFfvgJbgY0Sh5y1I0vh5ACTo2PMBGoptMtJAiROlO/xa3inVGwF2QeHLwKTrhAFQ1e4cTGA5+ww1SVfoxQgH5T7l/8Zc7p+QhM/gX4Y64fh6T+kcF0l3jV1GEqLKS82kZNlcUth9Y8xXG1mYkMNhfZkjSCSdFtlHk2HSa9KZErDlkUHpMa9GmPjIfJ6z9N/ZgKv9mc4AEcauJiVhX8JfTD646eIbm/B3FHATF0rFaVWiuzZMS0WqDAxM6mi+hQoMyQJkFizAWEdy9Ag+b0XYH3mN6zLr3NjKITp7GlGT41TWfBVCtP0XfI3/ABCMHUMxg5+CXl9Kf3tndRXWXFYswCSKQ0pOPfUo8a5xB/esI5j6Br5vh/iIi9jGzOowOX+MOYz7zB9dJjKvL+lsiBz0qqW2f8c7ZyB6Xc+z/iWCvrXbqCp2pzRubWq+88RHenA39iAfQ7nbuY0gviCGu5pDWVX5sJxfUzBeOYdAkf7KXrtecr3D5KJFU80i4rT8jUsf13D9N4nmNxai9KxgZrizIwti/JewHVjGxPrV2G/5R11RZldE4kxxSXHjT9i7OD1BzXck5m5gh5V4cTVECP/+ibS1/+evJy/wb1/MONdj5kHB7Aa/hr163/PyAtvca4vQiZmWJ7psOEaV/H4tNj2PmcX65aLVA2mfSpBtwYZlmXfH9Y52zON/2dv0/D6c7j39ZJtmt5+jbJnv82VySj+925nU6MVY4a5XN5xBVtQBf5jEZU7rajLseDQlduPKc4Edex912i58lpGNVpE0Tl23of3+cM0vfqPeLMQjnfl2Xudhhf/kZkfH+bElVDSSyovt5ovvEbZ5A1iFiKO87IxvxGxiJrxqyj9oxibMyeDog6cvBIi+JMjNB/9Ie6Hh8h2eff10vKL7+F94S3O9mXWcWrryjdRRsdwx6hl/27mnrsDEif+CIQ0ZiZVAhWZU+Pr4mCU4CtHaX39e3j29yH0S0gevE7Tz/+RyBvH6Hdlzuydd7WF0WGFab8ae1BIOEiP5YpENAIzSsY01lRARzp5koYXv4t3/w1Bxa3u1gO9VP742xjPvkM4gwqHzYxH8QUSD9Tl2+KPOOd0FVVHy6AJrJujEVynh3Dv7RU0xAvcd1xn/PwIA5OZQ0jIoxIOJz5xL99KkRSDJJ3ZbSZShuxMUHSouHmG2oM/FBTcReOXAoxnUGonLaqjqHrMmFxXlNviEDmRoUYCZClz9u14QxCe8uJ+rwjK76aqsm/SMHGOTBlDDGZpNldvDHOOFYckHIMYZZAy5MxnOKoRDGrC+hP54lpUAi4fnmBmvI/FYcBqkWMmAr/7CKLr6NHYgYbZImPLkG0IURWi4kh94iOuT8MfzowPirPShCM3th3ffQSRJCRT7GncojwjJfUZtAdLVKxOvKn0zGmvqlV5lMU7yxRjeSNhF6s8Xya6bh1D438gLEYoLTU6/QWm6tdin8NSXsKAGGSoq7RS3FlGwUtVorWF0kpFB6up3VZBbYX1DsNkooDE+ccVBTLalo303fOkaHGhtFHBKzUMPPE7mLdupDjeKcqEFgrv8o8NErSusLJiVy3Fx1eLlhdKeeW/XMulBz6GYXcXdSWmOY0ec3Kx3lWuGaxbN+F++pMUvtUgekAoZeX4t5V073gG/cEdtNVa4memvMMaX0L1QW5VSa6MdcdWht73UfIPipFEKDU11rID7wM72dJoJSfWMdsF1we5Q5GRlSUGLHu6uPLgM+S+0ih6Qyi14o63GsjZ3ca97TbybfKcBoDEAYmz9f1dtdeZMe/bTqBjg+gRodRxrQ6upv+9H8F2bxdl+fKd7fsuW6gWdKjSIMHmRit5+7dQfHqN6BmhZVfuyw1c2vMM9ge2sap04RnyFnzq2GoE29ZNTH3g4xQebxY9JLSsijY0YNzXxdo6c1Lul5Rj+c5cifxdG7n56McpOJQGM1v6bG2Ism/0CYu6i8q+0QealhY7TYpONKI/+gBbmnOSVkslaVlaq4sMuO/dSI/7E7S+8E3c96XuKb1ci4R/bTPTX/0+ZlkUC7iTpr+qYVpVT64ltXdyF765isEP/g4rdmyM+ay6poGuJ1QTZFEAkYCmSiPu+9dzzPMpNr/6LTz3X0/NIC5HwrC2jtCaOkTRprsOtliNzCkb4ZLD8Vodlx77XVbt2UCZQ45rn/M58ZfUPN8mg8S6eiv+fZ1IF4uA1ATEIIPDKuEQ9p/2KnylmuP7P83q+9dTV3IHc56np5B0/8JmluhqseH64McoPrpS9KDQoqng59Uc3P5Zih7opLnavCg1HBcGSJyFxDybgZrtrXQ//gWKXqsRPSm0KJIKcyl8sJWNDTmYjYvjAi4MEEmaTbgVIxOK02GgfV8bRx75IoWHKkRvCiVVxW9Uc/OZz7OzI49c6+JNtCz4zvESbgGUF5tY81ArL+/8EpZxm+hVoaQo/1QJb7//yzTe00x+7uKWy1o4endYrpclWF1poen+enJ7y0XPCi08xr2Zx8HNX2HDI2tw5psWfRZy0RcBzCaJzpYC+j71FYoPzT8e8QU0FJGIJO0V1cAbmH9HvlL+Z6x5qJlKp3lJ8rQlFZBYCYAlwJ5joGVbPec++qcUHaye172nvSphRRhYuiuiwJR7flm2ig/X0bKnmtYVOZgMcehIckr6pAISLx6RJMjPNdKxexWHn/wTCl+ZOyR9AxECYTGEpLv8IY0bA3PP1Fh0sIaej36Fzs4SbLGCcl2f/UAneVhZsn0WsgQlhSbWP9jAy+/50pyvH7nsJegXyazSXUF/lNGL3jldU/hqDW8++cd03ruafLvx9rjjlzVt5rqNJKUAATDKEivKLex9qALnO3M7ZLXF/af4bwwSiIiEVukqX1jHdWWALv9/Tfia/Jdr+X/v/TKb9zfNBuWxBog75HNLK0AAzEaJkvoyXJ/7EwqPNiV8XbgswNnXR5mcCmdc5aNskKbDpCvMxTdGCZcFEr7u1V2fY8OjTVSXmliOfaWL+pPxSinYLDJVa1dw5SNfxHEo8TMkrfIfcunlHkZdYTQBSVrBMTIRpvtn3ay1fDHh6wqOr2HrvnLqK62xg/I7HAlPC0CkOyBfmGugZWcDJx/7HLmvJX4asWL0s3S/1MPwRJiIIihJdYUVnaGxEKd/2s2K6d9L+Lq8N1u5+dEvUNlWgz3OVntdURa9Joek68vnsKiazqXBCKf+9QLbXvwHAvf1JHztefmv2PxgDfl1ZdhtRqwmsXE9pYLxiI7PH8V1Y4yT/zZAh/ELCV9rP9jGxac/zbqH1lBZZFzW91hWQN5tyGNXQ0z8yzGarf95bvGMx8zluq/RtKEEe00FRpOMLEsZVcskvVwpHU3TUSIqM32jXD45TuvwHxJ1RBK+R84vOjj+0G+z+Yl2Vleal/2dlh0QAHdQ5+bxqzi+/T/wtr895+sdJ0v4ecMXMZfbycuTMZnEKcHlUCSi4fNqhIf9vKf3q3g2TszpesuMykXrf6P0AzvYsMqyaDt0UxsQTYt5eGXSp3P10CVKvvstgpuOCWvLQuVd3Ebotz9O1cZG8qxxgvIl9g6W9lN7hyKhzlyJmq2N9D7+EcyHtwhryTLlnOpi/AMfxbkuDhzEnxXNHEAkCckYP+iqLjJQv3sNFx85gPG1LmE1WSLzka3ceP8zlG9qwmmPP0Isxkp5agGSgOrLjFTd18pU1zbyroeF9WS4DAe7OL//aap2tPsvHN4AAASvSURBVFBdlHol/lIOEFmCNTVmiva0o0QeFBaUwbLMqPi3bqTi3lYaK4ykYo3Y5QckxhyB3QzOzgZGHvsQ5lM7hSVl6ugxdh+592+gc6VltjQzApCEVZInsXJ7I9cf/RDGt7YJa8q00eP0TkYeO0DpugZyTKn7nMsPyB2m7aqLDKza3UT3w89gOLxdWFXGBOVdXHnkACu7GuOXRBOAJKbV5SZW3deEoWOFsKwMkPGNLk7s+zD1uxqpKkr9Bd2Uf0KDDG21JrT3PYSjb7ewsHSPO9ZUsXJPIw0VxrR43tQCRNNi5tiyGCWq2usYePzj2M/vEFaWpnJc30X4icdYX2+Of6ZcAHKXeCROTOKwSjRvruPsw5/AekystKeb7Oe6uPHEJ1nRUUuOaXnOdmQ0IADFeTKb9qzg0L5PkfP6OmF1aSLbsU2cet/v0rq5Nu42kkTKoQlA7sYPUFlkZPu+OizNJcLy0mHkeK2dV/b+LhvvqcXpMKTd86fdvnBZglVVFiY+9Cnyr4r1kVSXaZWTbQ/WUOM0kY7HdFIbkDiJsU0GiTVtpVx5+vPknRPxSMoG5Re3MnTgM7TU5WCIZWkpGnekDyAGQ9zCJ1azzMZN5bz95O9jP7FJWGOKKff0Zno++Ad0dJbGPvj07tEHSSwULt4XymZg+/ZyXn74c+S8JWq1p05QvpHDj/0+27vKsVrkuEH5cmxfzypAZAkqi0zcs6eSf73/sxS8IeqQLLdy3tzIz/Z/jh27ynHYDWlfAzLtD28bZGioNPPg/SVoNY3CQpezL8IGnr/3P7FtdyW1TlNKbl/PaEBiZY9/N2hvWpXPzQ//HjnnxPb45ZK1bwf33FPM2ro429fTIChPa0DuVM3KYpLYsK6UU09+GtMJAclSy3LmHq4f+Azr2ouwxFkpX4pEb8LFulNwaJW5795KDj/yKQxHdgmrXSrX6u17eOeJ32HrlnJyzHcIyk2mtHu3jAJEAgpyDey6r4o39h4QlrtEOvHQAe69t3JRi2kKQOYckMT2Zw0yrCwzsXuPk5yhh4X1LrLs44+wd28pznwjmZjQMn0BkST0d6sK3SKzUaKuoQTXBz+M8YaAZLFk7HsY74c+QnFVEcZYRZ80TQCyrIzI8uxWlBgjic0s0dxexsQHD2C8+aiw5mQbTu+jTD19gFXNpfETh2cAICmRm3cx5Q7oXDg9jOPZ57Caf0SgwiSsewGyjUQJBJ/A/fRv0bGpKv729UyJazMdEABvSKe3exjt0HH0ty9SYvwRM502Ye1zUPEhL2OO38LQ1YLWtYn6tkocOZmfRT+zALlDcuOIAjcmVIK9A5guXuDmtShVF05ScelHjH2sWBBw62RHSMf57BSjrR9gtH0jNSuNRJrWYF9dTV2xAZMhO9ohowDRf3mm/U75fxUNRmZUBicVnFODFPuHUVQBxO3xHRgknam8KqadNVQWGSl1yNyxssQyZF8XgMwVElVNeJeoqs/+aRqIYm6/ZhT86gSsUZ7DTI4AREgouyRKMQkJZS0gdyjYI5Sc9s10GTP67SQJUc5zcdtXAJLpnShCsKyHILsBEQYgJGIQISEBiJCQAERISAAiJJQm+v8x1cTKpjv0GgAAAABJRU5ErkJggg==;" parent="DfvMqDdx91Jrw5Rlsuxb-1" vertex="1">
          <mxGeometry x="80" y="80" width="81.84" height="80.2" as="geometry" />
        </mxCell>
        <mxCell id="DfvMqDdx91Jrw5Rlsuxb-4" value="" style="shape=image;imageAspect=0;aspect=fixed;verticalLabelPosition=bottom;verticalAlign=top;image=data:image/png,iVBORw0KGgoAAAANSUhEUgAAAEUAAABACAYAAABMQLqaAAAABHNCSVQICAgIfAhkiAAAABl0RVh0U29mdHdhcmUAZ25vbWUtc2NyZWVuc2hvdO8Dvz4AABulSURBVHicrZv5j1zHkec/me+ou6rvu5tk8xKpW/J4JMu21juYNQZYYBYL7P+5i8EuBljbkj1eQdJQlkRSPESyyb7vqu666x0Z+0O+V1Vd3aRkjbNRXVWv8uXxzciIb0TGUxKLAEDy9pIiKq2lXlnvgjsBhVL2o1IGMD9QPy3KviR5nen71eNF/cDv59obFPfsAF7VyA9XuagopQa3KYAYCH+go7QzDTigHPt5+KdXDuYHAPmB4v5wlbPlpWslg98UYlcqlQrTta+gAUE1ebUxcRclMtSEAqXQWoObhUwBsmPgTYBTBpVJhqztSyXv6Vgk7V+9ApcfBuxHg6KS9kaFexil/nelgNgC0avTqu3SrW3RrW0Q1V8QNzcIOlVM1ESJQYnYHYIC5eA4Hl6miF+YIFNaJD95k9z4Kro8m4BUBJ3tA3LxnH+6JKmBTvnrSirJKNAKEAGVbI3gBKlv0Tje4HR/ndPDTeqHuwStGqZzggSnSNxDEw2BrfqSYht1wfHQfpF8ZYHy5AKVqVkq03MUpldgbB4y06AroHz6EmRGF86c+Tb49eU65a8DZag9MyShjgKIIKojp7vUtu9x8PxLTncf0Kuu48YdXCeL52RwlIeJVKJ0XZRyUEr3BykIscSIxMQmQogRFRObAHRMoVKiMrPKzMot8ks/g4nbkJsAVQA8EI0M6T9FjEUq6aM/h78VKCkwiTGw20VATqGzR2vnezYe3mF37Vvax+tk6FDJaTSCIQe6AG4JdBHHzeK6eZTrgXYGoJiYMOwQR13isEscNnGkjTItHN0jDFt0QiFXnGDq8tssXn+f4sotKC+ANwmUgczwDEHMwHz25/A3BSWprhUQQNQiOv6OncefsPHgczqHzyl6Dr7y0EoTREIkLrmxBfLjS2QqS+TGl6mMz5MrToDrW4WZmvw4otM8pd2ocnq8R7u2S7u2Tu90B0ea5L0IRUQUtmmHAX4xz8K191i5/SEsvgu5VZACiD+gD2JQatRE/K1AUSBGrEhqA+ERrc3vePzV/2H70adkpc1k3kdilyDKgF+hMr3C9PJ1ppeuwcwKFGdBF60e0JnE3I4OLoKoB6YHvTpy8ILjnafsbT6hUd0mah3ixA1c3SEOT2hGmrHZy7zxi/9K7sZHkF8BKSCSBdEo5YwAMjSh/wgowmDLKBVA+4iDR5/y5M7/or77hMlchCuaOFAEFKksvs6l2x9SuvwmTCxaE4sL4liF1DepChw96EWA2FhJ1IAJ7QLEXWhUqW2tsfHwSw5f3MUJDhjLtEECur0WJjfGzZ/9mqn3fwulN4AKxG6iiIcgUQmhfMnMfxQoaQUjMY6joLvD1r0/8fiL/4k5vk8ll8ERIYqyFMrLXH7jFxRf/wVMrIA7DrEHohBRKK0GWyWRYjVkWUUgisB1km0PSCzWirgOEEF9m9qTb9h48BmNnQc48Qk53aIVtGhLxGsf/BPLH/0PKF4HkwcKgGstXGLuVAJKHyQZkMxXgnLWARC0E0L3kM27/8ranX8hqm0y4XUJ4gxGlZi98j6r7/wjLL0GftlyCeWDchkgcTHgfds8ZCFSA9pXY3ZpLDBhm/hgnfVHf2Hn4f9D6mtk3DZKNWgaxdW3f8XKx/8dCtfAjIEqYPoSY7WNEoUMi0sCzIXkra+GUrOW6qSoysbDP7P2zf9FnT6h6IBEMZniNAs3PmTmrX+A6VvgFAEPQSNKIdjdkE5yeBxquFNAEIwRzhAzNcSL0GjlozI+zkKR1eI8xfIk69/8jvbhAwpuQF46PL3zO8qFPGN/989Q8EBcwD+/KkmfQ87IyxltasH6ZtecUnvyOc/v/AvR0RpjTkwY+TileVbe/E+M3/4NTK1as2scDBrlqAH9T0V11DcYVXaW1CKY/n1aDVF5ZS0sgHJdmJhh5vUP0F6Gta89mntfk3M8sqrO3c/+wM+LU2Rva8iuolUWwUk4y8vLAJQRoidYS+M4AB06e095+pffYY4fUtIBnhH8yhyXbn1E5Y2PYeIm6DxGeRitrcUeKaOKTZSghvkDVncoJVjHMR7yHTQqdRC1Ih6amFuaYermhygNz77s0Tl4QNGNkLDBt5/9b97PZnGvVSBTQslL3INkgCLqJZIyTEUIoLnNi3t/pLn7PQXTAzxUboqF6x9Ref0fYfwq6Dwpo9QJAANSPYR4uk0UZwenjQUhrkPrgLhzTNw7xVEGx8tBaRIKU0ARhYeLj+APSHyhxOTqm4RBm6dfRTSPH5LPaGr7m2x89xmrE1dgrgJ6Aow3vDLJIqRaXy4AJf2NxCrEbWrr99l9/Dl+r0qOgNAtM738FlOv/RKmXgcnTyze4L6+xywJ+x2WCEngUWdDGmGLTnWH4+2HNPYfEza3ibv7uComm6uQK80wNv8axcXXYGwR9Hgi1B4GZUMUpRlmbnxAp91i/asqEu9SzjgcPPuGuZU3yJdnoZADVexv5+FRSTK2AShq+EfQyq6cOdll/cHnSHMHF4h1ifLcLeZe+whmr4KTTcytQaFRalhLJOorAUTU0LV+vTY0Dzl6fpftZ3+hebhB3DyyTmPUQGtBu1lEr5F98ZjpxXss3XwPd/E1yM6jmQDlIqJBOejyFJde+xmNw02On3XJux3CXpXtJ99yfWYZVibBrQAO4CSKXw2NZ0TRDnu+KAPS4WDzew7X71JSDRw8MoUZ5q6+i1p+GzKTGDwkCSQp5KyPwZAeUQOXo+96IFDfY+vRZ6zf+4So9oSs9CgIKIkwOkIQwl4DnBa9vS22j76jefQ9V9/6Fbnrv4FiGVAYMTjas5719BVWXvslJwe7RKd18pkuhxsPWVhaoDB5DSpzkChdlXjow/ruDChnzKOKoLHH5pOvoHuK1oZYZSnPXae4fAsKMyAepIAkCmRUv/Ytxrl+ImjX2Hv6DRt3/0T74DllNySjwBNBlEsvNHiFCSpTl/HL0wRBi4P9LZ5vHBKaL7idmSZzrQTeFI4UwYhVhK7H2JUbzO+8zf53u8RhQKuxyc7GI66vrENhJXEe/f4WEnmJpFh3Pq0VcLr7Pfsv7jKmA7SJ8csTTF963TJVp0SqFBSSRNDUaHPnABExSQyqzdHWEzYffolUnzPhhvgIjhHrVgnExufS6jvMvv1bGL8EQYfys+949u2/Ut19xMbDL7leqcD8u9afMgaMtpMoTbF0821Odx/S2avhZzIc760xvfeEsdmb4BUQiv1lGuaOZ21TCogS6DXYfXGfsLGHlhils4zPreIv3IT8eMJSk9tfEQQeLWmoUhrH7L24T23vGa40cQgssGKDTUEkFMZnmH37A1i6DmPLMHODhdsfsnjlTZTOsbv5lNbGNxAcgeoBMUbSlXXIza0wvnidyBvDz47Rabao7W9AcwdMC01sx3NWhAegpAFzkQgIiZpHHG0/Jqe7aAxutsLkwjUYWwInl9wzDMSPAUZQ2nbZqO1S231C1DnCd7ooAstmUYjSRDhkSlMwNgMqm5jRPBTmyFcWyeSnaNdrVLfuQmMbpAMqTphOUnKTVBauoYuzhGRwHZ9GdReprkPUQBEPavdFRc5LitIa4oDmyQEn+88pZQSlFIXyFMXZSzZGiodIsg/7QA+I+A8WE9Ks14g7dXwlEEuyda3oGxEcR9Pt1KF9AtIG3QV6EDaQoEXGUbh0adY2kOoORF3QYhV5HxXN+OwKxclljC7g+0XqR7s0D59B7xSI+qCkUQBRF9J8A3FIq7pP0DjEK4UYyVGZnIfKNOgcmMT0qrMK6scVIQx7tBt1CHr42kOTsSHNVEc5Ci2G2sEG9Ud3KGdKUBEQTWtzjaOtR5h2Fce0iHpt4qCJ6ygwgk42hIltQM+ZmKcyvUJzs4yEPmGnRnCyDu0qFEJSs2yF4mUOoQhxq051b5uMFpQYtJOlODYDmZK9RfRfi8RQseFJiQOUCXG0SoJAA0VtxOB5DkWtefCXPzN5fEpp+hKtdo+9nW1UY4OcdHAksLEZEyeutCENCxgx9pqTpTQ+h5sbR3p5xBzSru8x2arBVGzpyoiAnyNvKJCgS/OkiqscxLhkiuPkyjOWqJFEyoZiEQNpeTVSyZRxFGR9F88TpBf3N55KHAOtFLEJ8V2Nli4nG/eobT/BGHDF4JkWrunhSIyjczjatXikzFFh4z4igEtlYo5ccYb2SZ7ICI3GEUGzhh8HoHNIYjlTFdkHpR/wAeKgTeOkStbPoDVk8xUoT4CXsdxfFKa/sFbnjJK2FITB+gtKYlARcf2AdnUXwhaelkQvJUccKeEWgzaQ0ZrYtJG4Y9tU4BCiCFFotFNCecVkKoMeRQYHvJlcCT9foeMVQDnEUQ8TBSDW4XRUMp9RSek7b3FAHPdotxtktSKMDa6fg2IFHMdKxpBQnPVokskPSYzEFsc04iaHazz96vccvbhLJmriEg/a6HvECke5tlEDTrKKRiQ5GzSICdFukcL4qrWIKon3plY08YcAVDaPm8ki2oYNtIAyBkwEYvpBLEYlZRD3iIEIkcg2qjTK9W3UHW1XUY2GZdQgfiuD9iDxtDVATHD4grWvPuHw6b/jtA/I0EuYsDojaOpMaFASb13s2ERQOqbT65AprzCz/C4U5gEflNMPaqXvCkBrlOshSichERBjkrnKIDoxKikDmpGe1YmNSCmNchyryl+mMmSYpQycPzsgAULk6AnPvvqE47U7eJ09fNWz2ykNYgsolSh2y1YGyGIdTpRBlKHeaSOuz/zlt8is/D1kZrBhC2fgfQ8TbAXKseZeRGGMQUzCKRioorS3IeuTBkaHNoIx6cwYksu+UzcC8KCZpKoS62lHR894+tXvqT6/g9PaJS91HKVQGEyiuK0zmQSZ+kwz4RBiv8US0+116BrF0uWbLN/+EKZugx4D5aVeZhqHHpSB2CVbSnFRZDq978z2sfPRidJR/cFYsTVnAFMq+TrU+MDDTkIPqgvHz3l25/ccPPkCr3uALzbTwN6mE4Dt0aZITLfXxpiITMbF1QoxhligG8Z0Q4OXH2N29U2W3vwIlt6F7DjgDRYuKWcif2KjeAq7FfUo+T7jtsnZ/BSlSI4wNYI9RFKEmCiCODoP/HmwEZ36DiFxdYO1O7/n8PvP8dq75FUrkQsb9hNlo14KQxSHRFGA9jVaefSiHt1eDwU4XhY/X6BcmmF25XUmrv0K5t6B/CSofH/D95k66XZIZ2uQOLJ8BtO3smdmcWHoQA0+KO3hehmIQWtFELSh27SNOupMA8NlsAAdzNEaT7/6A/sPP8fvHZJREU5SSwRiYzCJSYyNoWccCuOXWb72BsYrUjut0+20cLQmkytSGptiYnoBb/YSlJfAnaDvbqQRPlTfb7Hcw+51iQLisIfEkfXStUY76WHcECbneEo6MSM4rk++UCJqxSgHgl4b2qcQh/aOgY4alrpkU8bEx5s8u/MJO9/9mWxvn6LTs3koCZ7WDRNSXWdQ5MfmWX3r15Tf+CU4k0wGYiVHa5Tj4WQL4GXtS2dAnH7/oiQJeQ5kxPInO7Req0XY6aBMBBLjuB6u55EcG4yo9BGeYj84uJkC5YkpDra6lDxD2D0lrB/jRT3wz8gnqZlGA3ETOdlm7etP2Pzu3/B7R2RUaK1Joo9iMSjXpzC2iFeaI1Y+4maYmL9K+ca7MLYAFNDaH4SlxVIDy1o1iB6ogXQrDJlx1ICjQESrXiXo1HDoohX4fhHHL4C2NCN1BtMyAKUPlYuTLTI5O89W3EMpIerWadX2GQs72JQtq9SGz4bE9Airm2ze+5St+38k19ul4IQ4kjpp9i+KIzL5EvPX3qV04yPwK4jKo3Jl61tpjwE7HVoxOX+pL6FnONNo1Yh6dZ9e8wjPtHAUFIoTUBjruy0y1OiZIw5J/imATJ7yxCzKKyG6B3FMvbbLWOsYKl0ggxEfrZTdlgJB85T1R1+xce9TssEBRS/CMREqIUxRHBKZkFYQ4ZTGcYvjMLkCmUkUNjvA8pUzWnBocC8vFyl8G5kUaNVoHG8TdWu4UQfl5shWlu1xiU4J6dDcB1eGWtcOaI98eZrK1CV6kY/W0DzZg9M9iBugYxwnTesCJMZ0GpzurRGerpHXdbTp4iiscyeGXtihE7TpRgGdOCbAxSbXeIh4GHEQY30WMSOvV2Nyvgwtfft4h3Z1Cx01MFGLQmWW/ORVyE1iCd8gxpwy8pec+7jkx2aYWLjB+rfrzBSh265S3XvGxMJrMJ5FiW+VnVZWW8YRRF0yToRLlHiuQiyGyCjmLt+iPD1PT+WR3ASF6as2gieO1RwpqxSVDFBGBjW6ei8vaawHWtR21+hUN8lKl16vw/TUIt7UVZtR1c+yZOis6oLAtS0a8mNMX7rN9/c/J6KBEzbZW3/AxPItKE3bRo1CcPqUXCuFIkn5jG1oUJTQNQ4zq+/i3/oA/CmbvOfZFFAxJAnH2u6cPtl4hXwM28+LsErfG0ccbT1CB8do08FxNOXJBagsg1NI+jzfjh5ub+C7aNBZZlZuMzZ/nZ5xETE0qtvU1u9D4wAIQEUDA6TAJBMRFKGBdmhoBcJJR+i541BagdJlyC2BN4Zo33IGJX3r9JNKMnjp+/8C9Nh+eo/TvSdkadLrNJicXmJq4RoU50HnbTS2n1qR3nfBSbM1Txq0jzu+wuqtD2hHPjEuKu5xtPEA2XkC4Sno2N4UGyKTRNK1JhRFIC4dk+E0znMaF2hJHiKbEmGUhySZkX1nMIma9SWkH0m/4DUiJSKCMUlemwIwBAdrrD/8kri5gxM36XR7TC5cw5m5ZomfZPrzZeTTK5KLfciMs3DlTXYeX6N7dJ+8RLRqG+ysfc3i5CLMvY4mD0ow2iEQj52jNkHRZ2npKj/7+cfEKk9bCpQWbtpEHuVjlB7yVIbtbfo+5PaPDHhU2wD2HFkN3R/U2Hp8h/ruI8pSp9M+ZnJ2hdkr79jYiy5h82dGBCIhgK/IOrBnrbnpyyzd/JC7B1s4qoYbn3Kw8Q2FSoWxXAEqeauCSlOs3PyAoFEj7rbwZq/B6i9x3BIllQM331esztA2sxIymOgwGAOCJv1vZ9SvDN516qHGbapPv2H/+8/JBHu4qkkr7HHtxvuwaI96LT9RZ8zwgL2p82fJMCKcmTEWb/wdu1vPaDz/lIxpo9v7HK59iV+eIX97EvwpvHyRxavvUMpXiMMu2XwRsss2q0n5Z1rt5+P3o3gj2yG9JOeu9i9Kn8oqy0kVYDrUNx7w7O6/ERx9T1E3OK3ts3DpJvPX34fKqj3ZHJW2IRMuXOD7DHdvP3j4k5dZffNjHlY36Jx0yMWG9tFzdh78mUteDu/azyGzgDs2zkSuQF/zOT4oD/skhrFBqzOrcsG4LiqJNk+PqQaJzUN1TJPu9gO27v2e1s7X5FWVXvuEbHmRK2/8Z5i7BZkpIDPIhEr/jSj5M17yMBgCSZReo7xxZi69Q/vWGi++OiYKdnHllObOd2wpYRGFf/1X4CcPFCTzMHJGPqyLIGpUMH6AnJ3XLudCF6ZNe/cp6/f+RPX552TCbXR4SBgG3Hrnv5C/+iEUl8Gp2LPmkfZH6eEZ32fUfxgMQqGLEyzd/ohW85Sjx5/SCrooOpxsPyDGZVliMpffg+IKUEiSdIbz5FUyIMWor9JPDR3uP1mV/lZKRV4xBKqBoE5r6x7bD//M8bMv0Z0tMG0agWLx5ofMvfUPNvXMLUNiggepoim4Z1fpYvJ2ZsQ2+0zrLP7sTS6/p9BRk5PHVXRwSkbqtLa/ZjtsMd06pXT9VzBxGVQBB02ssAQN6D/IxGBQw5L5MqIqg9GfiaiZ5iGH6484fPQJrc3P8To7uHGVdmiYXbnNjQ/+CRbeBm8eyBKnlD5pK11wRgTiLCh9X2bgC6QrLSiUk6O0cI3Vd3/LMyPsP/uCONwlowJO9h7R7DSZbR0zu/ouzN6A3BQOefuYiqTZRkMrNVLS6wPhUggGp4+EwT46UyOobnP44j57T7+mtf8Qv7eNibuE4lNevMmNv/9nWPkQ/Gl7OJ+6D0Lisw8WRyl1Jj503iQPAZOMq3+zoFFuidzSe1xSJXCzHD/5A2FwgG9qREc19nt7NA8eM33l55SX3oTJK5CdApVFqUy/sVECe4alDPEzlcZrCK3uONnndOs+1Rff0Nx9iDlZJxPVcM0pAXmmlm7x2gf/DS79GrIrEPsY5VmeLoOZDPc8au0uzrg+e89AtJOtoIkh7BIc3GfzwR/ZfvQZcvoc3wlwVEwoLtmxeUozq8xeeYvK7FUoz1nPVOewB1cu6Wlj6pQN5FgnIAQQdyBoENcPODna5GDrCSc7j+nV1tFBHd+0CGOFlysxe+Udrrz9G1h+19IBimC0Zeh9nOXsvEa+qJeC8gqMhouK20T1PY7X/p3N+3/kZOsuZV1DS4so7iBuhtzYIsWJZcamVilPXsEvzUN+GvJl8As2qKTcPj23h+UGmlWCVo1u44BWdYPG0XPatQ3atS2IGnh0ESOY2OCP32Dp9sfM3Pq1zfh2K6By/RjNhfzrgnn1rdpPeVzOYBfYRklD6BwS7H7P9qMv2Hn8Oa3qc4rZAK16RCYkNpDJjZMrTJIpTeMVpvDzY7jZMq6fRzlZ267EmDgg6DbpNqt0Gsf0mseE7WOibg2PAEdCIlGEscLPTbJ06TaLtz7CWXrHer963JJFGTgSf21RFz+X/OrG0kfl0lqaEOIe1Paobz/lcP1bdp59Qef0GRLsM15SaEJM1CMSG24QnUO7BVyviHJygEpWvkOvVwPTAdPFc8BzbLZ1r2cIIxevfJnZK+8xf+U9CvOvw+QyZCYsGMo+EzBqUX46KKn2O8c4z9Pw4Sp6uErYgdMtevsPOdj4hoOtu1T3HtNrHuLRI+OD54BOHpEz4iLKs1lMAiIBWgXExmYVdHshQaTJF6cYm1xmev4aU5feIbP0FoxfBj85Mo0U4jj22UozejT2twDlDALn+OP5KsM1FEAAYQPq+8TtKicHGzRru9SPtqgfbdCt7xF1a0jURIaiMAMXRJMvTJDJT1GeWGJs+hLFiUUqk4uosTkoToFfAZXFPpmh+i8ZtiJ/E1D6LY2Ac2H242ADpZKTWjxHk6RvRlbx9NoQNJDWMWF9D9M9hvAUCU+I4wCILSRKAAfXy+Nlx1HeGE5xFkpzkEmi70524E8BccKn9F+tGX8UKKMTZmQ7Xay75aLTdgGM6dNzm9AWg/Ss7om79iW9xNrEDFijA27G6ge8QcgBr+8YpllL6WJoRXJtaOw/WU5eaX2k/2iZjXiPdmJHYdTgDHeQmExynEk/40nr0TCfsaYXSSqlkmJz7AfEKJmgsm2mTua5R2f6WAxz4p8GzMsfgjrLMS+ooYb+D8avRhaq72eItVoDx3NIFfYlMvkxlUw18Nb73aiXTLV/8T++jy6UFIt1uvQpyztfZ3hAfQ3TR2bUIf8RKzes1tTwpcR1uyDV/VwDZ54k/WmS8v8BAxMed8W+D80AAAAASUVORK5CYII=;" parent="DfvMqDdx91Jrw5Rlsuxb-1" vertex="1">
          <mxGeometry x="200" y="119.99999999999999" width="43.13" height="40" as="geometry" />
        </mxCell>
        <mxCell id="DfvMqDdx91Jrw5Rlsuxb-6" value="" style="ellipse;shape=cloud;whiteSpace=wrap;html=1;fillColor=#FFFFFF;" parent="DfvMqDdx91Jrw5Rlsuxb-1" vertex="1">
          <mxGeometry x="410" y="-10" width="380" height="330" as="geometry" />
        </mxCell>
        <mxCell id="DfvMqDdx91Jrw5Rlsuxb-7" value="" style="rounded=1;whiteSpace=wrap;html=1;fillColor=#6666FF;" parent="DfvMqDdx91Jrw5Rlsuxb-1" vertex="1">
          <mxGeometry x="460" y="100.05" width="280" height="39.9" as="geometry" />
        </mxCell>
        <mxCell id="DfvMqDdx91Jrw5Rlsuxb-9" value="&lt;font color=&quot;#ffffff&quot; style=&quot;font-size: 14px&quot;&gt;&lt;b&gt;Session with user information&lt;/b&gt;&lt;/font&gt;" style="text;html=1;strokeColor=none;fillColor=none;align=center;verticalAlign=middle;whiteSpace=wrap;rounded=0;" parent="DfvMqDdx91Jrw5Rlsuxb-1" vertex="1">
          <mxGeometry x="480" y="110" width="230" height="20.1" as="geometry" />
        </mxCell>
        <mxCell id="DfvMqDdx91Jrw5Rlsuxb-8" style="edgeStyle=orthogonalEdgeStyle;rounded=0;orthogonalLoop=1;jettySize=auto;html=1;entryX=0;entryY=0.5;entryDx=0;entryDy=0;" parent="DfvMqDdx91Jrw5Rlsuxb-1" source="DfvMqDdx91Jrw5Rlsuxb-3" target="DfvMqDdx91Jrw5Rlsuxb-2" edge="1">
          <mxGeometry relative="1" as="geometry" />
        </mxCell>
        <mxCell id="26o6t8TVqRV3F2NI3kRC-0" value="" style="shape=hexagon;perimeter=hexagonPerimeter2;whiteSpace=wrap;html=1;fixedSize=1;fillColor=#330066;" vertex="1" parent="DfvMqDdx91Jrw5Rlsuxb-1">
          <mxGeometry x="480" y="180" width="70" height="60" as="geometry" />
        </mxCell>
        <mxCell id="26o6t8TVqRV3F2NI3kRC-1" value="&lt;font color=&quot;#ffffff&quot; style=&quot;background-color: rgb(51 , 0 , 102)&quot;&gt;&lt;b&gt;Service A&lt;/b&gt;&lt;/font&gt;" style="text;html=1;strokeColor=none;fillColor=none;align=center;verticalAlign=middle;whiteSpace=wrap;rounded=0;" vertex="1" parent="DfvMqDdx91Jrw5Rlsuxb-1">
          <mxGeometry x="495" y="200" width="40" height="20" as="geometry" />
        </mxCell>
        <mxCell id="26o6t8TVqRV3F2NI3kRC-2" value="" style="shape=hexagon;perimeter=hexagonPerimeter2;whiteSpace=wrap;html=1;fixedSize=1;fillColor=#330066;" vertex="1" parent="DfvMqDdx91Jrw5Rlsuxb-1">
          <mxGeometry x="565" y="210" width="70" height="60" as="geometry" />
        </mxCell>
        <mxCell id="26o6t8TVqRV3F2NI3kRC-3" value="&lt;font color=&quot;#ffffff&quot; style=&quot;background-color: rgb(51 , 0 , 102)&quot;&gt;&lt;b&gt;Service B&lt;/b&gt;&lt;/font&gt;" style="text;html=1;strokeColor=none;fillColor=none;align=center;verticalAlign=middle;whiteSpace=wrap;rounded=0;" vertex="1" parent="DfvMqDdx91Jrw5Rlsuxb-1">
          <mxGeometry x="580" y="230" width="40" height="20" as="geometry" />
        </mxCell>
        <mxCell id="26o6t8TVqRV3F2NI3kRC-4" value="" style="shape=hexagon;perimeter=hexagonPerimeter2;whiteSpace=wrap;html=1;fixedSize=1;fillColor=#330066;" vertex="1" parent="DfvMqDdx91Jrw5Rlsuxb-1">
          <mxGeometry x="650" y="180" width="70" height="60" as="geometry" />
        </mxCell>
        <mxCell id="26o6t8TVqRV3F2NI3kRC-5" value="&lt;font color=&quot;#ffffff&quot; style=&quot;background-color: rgb(51 , 0 , 102)&quot;&gt;&lt;b&gt;Service C&lt;/b&gt;&lt;/font&gt;" style="text;html=1;strokeColor=none;fillColor=none;align=center;verticalAlign=middle;whiteSpace=wrap;rounded=0;" vertex="1" parent="DfvMqDdx91Jrw5Rlsuxb-1">
          <mxGeometry x="665" y="200" width="40" height="20" as="geometry" />
        </mxCell>
        <mxCell id="DfvMqDdx91Jrw5Rlsuxb-11" style="edgeStyle=orthogonalEdgeStyle;rounded=0;orthogonalLoop=1;jettySize=auto;html=1;entryX=0;entryY=0.5;entryDx=0;entryDy=0;" parent="DfvMqDdx91Jrw5Rlsuxb-1" source="DfvMqDdx91Jrw5Rlsuxb-2" target="DfvMqDdx91Jrw5Rlsuxb-7" edge="1">
          <mxGeometry relative="1" as="geometry" />
        </mxCell>
      </root>
    </mxGraphModel>
  </diagram>
</mxfile>
